<?xml version="1.0" encoding="utf-8"?>
<!-- Generator: Adobe Illustrator 16.0.0, SVG Export Plug-In . SVG Version: 6.00 Build 0)  -->
<!DOCTYPE svg PUBLIC "-//W3C//DTD SVG 1.1//EN" "http://www.w3.org/Graphics/SVG/1.1/DTD/svg11.dtd">
<svg version="1.1" id="Layer_1" xmlns="http://www.w3.org/2000/svg" xmlns:xlink="http://www.w3.org/1999/xlink" x="0px" y="0px"
	 width="756px" height="315px" viewBox="0 0 756 315" style="enable-background:new 0 0 756 315;" xml:space="preserve">
<style type="text/css">
<![CDATA[
	.st0{fill:#8B0021;}
	.st1{clip-path:url(#SVGID_2_);}
	.st2{clip-path:url(#SVGID_4_);fill:#8B0021;}
	.st3{clip-path:url(#SVGID_2_);fill:#FFFFFF;}
]]>
</style>
<path d="M161.516,188.999c0-5.897-0.326-7.329-3.902-7.725l-2.551-0.24c-0.636-0.479-0.556-1.672,0.081-1.991
	c4.3-0.398,9.714-0.638,17.122-0.638c5.016,0,9.797,0.396,13.38,2.23c3.425,1.674,6.048,4.858,6.048,9.954
	c0,5.733-3.34,8.683-8.119,10.911c0,0.796,0.631,1.035,1.509,1.195c4.302,0.796,10.677,4.776,10.677,13.299
	c0,9.238-6.85,15.45-21.187,15.45c-2.308,0-6.211-0.238-9.555-0.238c-3.503,0-6.215,0.157-9.161,0.238
	c-0.479-0.238-0.636-1.516-0.161-1.987l1.436-0.245c4.22-0.636,4.383-1.589,4.383-9.952V188.999 M168.048,199.589
	c0,2.232,0.078,2.389,4.138,2.232c8.123-0.32,12.504-2.711,12.504-10.196c0-7.804-5.816-10.751-11.869-10.751
	c-1.75,0-2.943,0.16-3.659,0.479c-0.799,0.235-1.114,0.636-1.114,2.068V199.589z M168.048,218.067c0,2.864,0.155,6.928,1.668,8.676
	c1.515,1.834,3.902,2.231,6.293,2.231c7.084,0,12.5-3.185,12.5-11.151c0-6.288-3.184-13.614-15.844-13.614
	c-4.302,0-4.617,0.48-4.617,2.073V218.067z"/>
<path d="M217.308,190.748c0-8.438-0.159-9.793-4.86-10.193l-1.99-0.156c-0.479-0.321-0.32-1.754,0.161-1.993
	c3.977,0.16,6.689,0.239,10.028,0.239c3.188,0,5.897-0.079,9.879-0.239c0.475,0.239,0.638,1.672,0.157,1.993l-1.991,0.156
	c-4.695,0.4-4.857,1.755-4.857,10.193v28.35c0,8.447,0.162,9.558,4.857,10.115l1.991,0.245c0.481,0.313,0.318,1.749-0.157,1.987
	c-3.982-0.163-6.691-0.238-9.879-0.238c-3.339,0-6.051,0.075-10.028,0.238c-0.481-0.238-0.64-1.516-0.161-1.987l1.99-0.245
	c4.701-0.558,4.86-1.668,4.86-10.115V190.748"/>
<path d="M242.815,205.483c0-15.931,11.948-28.111,28.352-28.111c18.395,0,27.635,13.296,27.635,27.317
	c0,16.083-12.268,27.789-27.635,27.789C253.491,232.479,242.815,219.819,242.815,205.483 M290.837,207.156
	c0-13.141-5.813-27.316-21.022-27.316c-8.281,0-19.035,5.654-19.035,23.094c0,11.783,5.735,27.075,21.422,27.075
	C281.759,230.009,290.837,222.844,290.837,207.156z"/>
<path d="M317.263,190.59c0-8.361-0.162-9.635-5.174-10.035l-1.992-0.156c-0.481-0.321-0.319-1.754,0.158-1.993
	c4.459,0.16,7.166,0.239,10.349,0.239c3.108,0,5.817-0.079,9.797-0.239c0.483,0.239,0.641,1.672,0.162,1.993l-1.908,0.156
	c-4.707,0.4-4.863,1.674-4.863,10.035v27.712c0,5.021,0.236,7.09,1.674,8.604c0.875,0.878,2.387,1.828,8.683,1.828
	c6.768,0,8.434-0.318,9.709-1.034c1.598-0.957,3.666-3.822,5.262-7.881c0.475-0.401,1.992-0.081,1.992,0.476
	c0,0.877-2.23,8.999-3.349,11.15c-4.061-0.163-11.625-0.238-19.828-0.238h-7.331c-3.341,0-5.89,0.075-10.349,0.238
	c-0.477-0.238-0.639-1.516-0.158-1.987l2.388-0.245c4.616-0.479,4.778-1.589,4.778-9.952V190.59"/>
<path d="M360.011,205.483c0-15.931,11.943-28.111,28.352-28.111c18.4,0,27.637,13.296,27.637,27.317
	c0,16.083-12.264,27.789-27.637,27.789C370.681,232.479,360.011,219.819,360.011,205.483 M408.032,207.156
	c0-13.141-5.812-27.316-21.023-27.316c-8.283,0-19.031,5.654-19.031,23.094c0,11.783,5.73,27.075,21.421,27.075
	C398.954,230.009,408.032,222.844,408.032,207.156z"/>
<path d="M475.909,223.084c0,3.186,0.475,5.098,1.906,5.65c0.238,0.24,0.238,0.724-0.078,0.958c-0.957,0-2.393,0.316-3.904,0.716
	c-4.221,1.116-9.953,2.07-14.254,2.07c-9.477,0-18.156-2.627-24.287-8.842c-4.781-4.773-7.326-11.067-7.326-18.076
	c0-6.77,2.227-13.616,7.162-18.876c5.338-5.571,13.225-9.312,25.246-9.312c4.541,0,8.76,0.876,10.115,1.193
	c1.514,0.319,3.984,0.875,4.939,0.715c0,2.631,0.48,6.771,1.191,11.552c-0.236,0.635-1.672,0.714-2.146,0.238
	c-2.232-8.603-8.205-11.312-16.327-11.312c-15.45,0-22.22,10.99-22.22,22.938c0,15.289,7.883,27.312,23.893,27.312
	c4.934,0,7.883-1.034,8.762-2.385c0.396-0.558,0.795-1.994,0.795-4.54v-3.187c0-6.691-0.242-7.172-5.176-7.727l-3.506-0.395
	c-0.635-0.319-0.559-1.755,0-1.993c2.309,0.159,6.691,0.238,11.387,0.238c3.106,0,5.815-0.079,8.445-0.238
	c0.555,0.318,0.633,1.513,0.077,1.993l-1.272,0.156c-3.348,0.401-3.422,2.626-3.422,6.691V223.084"/>
<path d="M502.388,190.748c0-8.438-0.162-9.793-4.861-10.193l-1.984-0.156c-0.482-0.321-0.318-1.754,0.158-1.993
	c3.982,0.16,6.688,0.239,10.033,0.239c3.188,0,5.893-0.079,9.878-0.239c0.475,0.239,0.638,1.672,0.157,1.993l-1.992,0.156
	c-4.694,0.4-4.855,1.755-4.855,10.193v28.35c0,8.447,0.161,9.558,4.855,10.115l1.992,0.245c0.48,0.313,0.317,1.749-0.157,1.987
	c-3.985-0.163-6.69-0.238-9.878-0.238c-3.346,0-6.051,0.075-10.033,0.238c-0.477-0.238-0.641-1.516-0.158-1.987l1.984-0.245
	c4.699-0.558,4.861-1.668,4.861-10.115V190.748"/>
<path d="M538.339,184.137c5.812-4.535,13.221-6.765,21.502-6.765c4.302,0,10.349,0.876,14.097,1.908
	c0.953,0.243,1.516,0.399,2.231,0.321c0.08,1.83,0.478,6.849,1.113,11.703c-0.398,0.562-1.59,0.64-2.154,0.162
	c-1.19-5.416-4.771-11.627-16.318-11.627c-12.183,0-22.541,7.724-22.541,24.209c0,16.724,10.594,25.96,23.656,25.96
	c10.265,0,14.808-6.686,16.643-11.385c0.553-0.397,1.749-0.241,2.067,0.314c-0.56,4.146-2.628,9.399-3.822,10.913
	c-0.957,0.157-1.906,0.478-2.789,0.795c-1.75,0.636-7.481,1.832-12.582,1.832c-7.161,0-14.015-1.433-19.83-5.331
	c-6.369-4.383-11.307-11.632-11.307-21.902C528.305,196.405,532.29,188.838,538.339,184.137"/>
<path d="M621.225,212.726c-0.554-1.749-0.876-1.984-3.265-1.984h-12.022c-1.99,0-2.472,0.235-3.032,1.907l-2.782,8.361
	c-1.195,3.586-1.753,5.733-1.753,6.614c0,0.953,0.397,1.432,2.313,1.589l2.62,0.245c0.558,0.394,0.558,1.669-0.154,1.987
	c-2.074-0.163-4.54-0.163-8.279-0.238c-2.632,0-5.5,0.157-7.651,0.238c-0.48-0.318-0.634-1.594-0.158-1.987l2.627-0.245
	c1.912-0.157,3.666-1.031,4.782-3.902c1.43-3.661,3.664-8.84,7.009-17.757l8.123-21.503c1.108-2.867,1.59-4.381,1.352-5.652
	c1.913-0.559,3.267-1.993,4.136-3.026c0.481,0,1.038,0.161,1.197,0.716c1.032,3.501,2.311,7.167,3.505,10.668l10.909,32.017
	c2.312,6.852,3.349,8.046,6.774,8.44l2.147,0.245c0.558,0.394,0.396,1.669,0,1.987c-3.265-0.163-6.053-0.238-9.639-0.238
	c-3.817,0-6.846,0.157-9.155,0.238c-0.638-0.318-0.72-1.594-0.157-1.987l2.305-0.245c1.676-0.157,2.788-0.636,2.788-1.429
	c0-0.878-0.397-2.313-1.032-4.226L621.225,212.726 M605.455,205.642c-0.635,1.831-0.559,1.912,1.673,1.912h9.801
	c2.306,0,2.465-0.318,1.749-2.47l-4.301-12.98c-0.642-1.913-1.355-4.062-1.83-5.018h-0.163c-0.235,0.399-1.035,2.311-1.912,4.696
	L605.455,205.642z"/>
<path d="M658.619,190.59c0-8.361-0.159-9.635-5.177-10.035l-1.988-0.156c-0.48-0.321-0.324-1.754,0.158-1.993
	c4.459,0.16,7.167,0.239,10.346,0.239c3.107,0,5.813-0.079,9.803-0.239c0.478,0.239,0.631,1.672,0.158,1.993l-1.912,0.156
	c-4.701,0.4-4.858,1.674-4.858,10.035v27.712c0,5.021,0.237,7.09,1.674,8.604c0.876,0.878,2.387,1.828,8.674,1.828
	c6.775,0,8.445-0.318,9.721-1.034c1.594-0.957,3.663-3.822,5.255-7.881c0.482-0.401,1.993-0.081,1.993,0.476
	c0,0.877-2.234,8.999-3.343,11.15c-4.063-0.163-11.631-0.238-19.831-0.238h-7.333c-3.339,0-5.887,0.075-10.346,0.238
	c-0.482-0.238-0.639-1.516-0.158-1.987l2.381-0.245c4.625-0.479,4.784-1.589,4.784-9.952V190.59"/>
<path d="M169.198,315c-6.688,0-10.914-2.068-12.422-2.945c-0.955-1.75-1.992-7.406-2.154-11.146
	c0.398-0.562,1.592-0.725,1.918-0.243c1.189,4.062,4.457,11.862,13.694,11.862c6.689,0,9.954-4.375,9.954-9.155
	c0-3.501-0.72-7.408-6.529-11.15l-7.568-4.938c-3.979-2.627-8.6-7.163-8.6-13.696c0-7.56,5.895-13.69,16.243-13.69
	c2.472,0,5.338,0.394,7.412,1.033c1.033,0.235,2.15,0.48,2.785,0.48c0.716,1.912,1.431,6.372,1.431,9.711
	c-0.316,0.479-1.593,0.717-1.988,0.238c-1.037-3.816-3.186-8.996-10.832-8.996c-7.803,0-9.478,5.18-9.478,8.84
	c0,4.617,3.826,7.882,6.774,9.792l6.368,3.982c5.016,3.106,9.953,7.728,9.953,15.29C186.159,309.03,179.554,315,169.198,315"/>
<path d="M208.444,266.665c5.814-4.545,13.223-6.768,21.502-6.768c4.299,0,10.354,0.87,14.096,1.905
	c0.957,0.244,1.51,0.401,2.229,0.317c0.082,1.836,0.478,6.851,1.115,11.707c-0.399,0.563-1.592,0.636-2.151,0.16
	c-1.193-5.41-4.775-11.623-16.328-11.623c-12.181,0-22.533,7.723-22.533,24.211c0,16.718,10.59,25.953,23.648,25.953
	c10.278,0,14.815-6.687,16.645-11.381c0.562-0.401,1.754-0.238,2.076,0.312c-0.558,4.144-2.633,9.404-3.822,10.912
	c-0.957,0.156-1.916,0.478-2.793,0.798c-1.752,0.637-7.486,1.83-12.577,1.83c-7.173,0-14.019-1.431-19.831-5.334
	c-6.373-4.382-11.31-11.628-11.31-21.9C198.41,278.924,202.392,271.36,208.444,266.665"/>
<path d="M269.11,273.266c0-8.433-0.162-9.787-4.857-10.187l-1.99-0.157c-0.479-0.32-0.319-1.756,0.156-1.991
	c3.982,0.16,6.691,0.235,10.035,0.235c3.184,0,5.893-0.075,9.873-0.235c0.483,0.235,0.639,1.671,0.162,1.991l-1.992,0.157
	c-4.697,0.399-4.859,1.754-4.859,10.187v28.358c0,8.44,0.162,9.556,4.859,10.111l1.992,0.24c0.477,0.317,0.321,1.749-0.162,1.987
	c-3.98-0.156-6.689-0.238-9.873-0.238c-3.344,0-6.053,0.082-10.035,0.238c-0.475-0.238-0.635-1.51-0.156-1.987l1.99-0.24
	c4.695-0.556,4.857-1.671,4.857-10.111V273.266"/>
<path d="M304.212,273.115c0-8.282-0.16-9.479-4.856-10.036l-1.273-0.157c-0.479-0.32-0.32-1.756,0.156-1.991
	c3.422,0.16,6.131,0.235,9.399,0.235h14.97c5.094,0,9.795,0,10.748-0.235c0.483,1.353,0.959,7.087,1.276,10.586
	c-0.317,0.48-1.592,0.641-1.99,0.163c-1.196-3.746-1.911-6.528-6.051-7.565c-1.67-0.397-4.221-0.478-7.721-0.478h-5.738
	c-2.389,0-2.389,0.159-2.389,3.185v15.927c0,2.23,0.238,2.23,2.625,2.23h4.621c3.344,0,5.812-0.159,6.774-0.479
	c0.951-0.316,1.508-0.795,1.904-2.786l0.639-3.263c0.396-0.479,1.754-0.479,2.072,0.078c0,1.91-0.318,5.015-0.318,8.047
	c0,2.86,0.318,5.892,0.318,7.638c-0.318,0.56-1.676,0.56-2.072,0.082l-0.715-3.103c-0.32-1.437-0.877-2.634-2.469-3.028
	c-1.113-0.323-3.025-0.398-6.133-0.398h-4.621c-2.387,0-2.625,0.075-2.625,2.152v11.229c0,4.219,0.238,6.924,1.512,8.28
	c0.957,0.955,2.627,1.827,9.635,1.827c6.131,0,8.447-0.312,10.191-1.19c1.438-0.797,3.588-3.583,5.654-7.727
	c0.561-0.397,1.68-0.158,1.993,0.559c-0.551,2.785-2.547,8.923-3.581,11.066c-7.168-0.156-14.257-0.238-21.341-0.238h-7.168
	c-3.426,0-6.135,0.082-10.832,0.238c-0.481-0.238-0.637-1.51-0.159-1.987l2.625-0.24c4.541-0.399,4.94-1.591,4.94-9.955V273.115"/>
<path d="M401.353,300.185c0,2.393,0,11.87,0.238,13.941c-0.16,0.477-0.633,0.874-1.51,0.874c-0.959-1.353-3.269-4.136-10.199-12.026
	l-18.475-21.021c-2.154-2.471-7.56-8.999-9.238-10.748h-0.156c-0.319,0.953-0.395,2.783-0.395,5.171v17.365
	c0,3.743,0.153,14.093,1.43,16.483c0.558,0.874,2.07,1.352,4.062,1.512l2.469,0.24c0.477,0.637,0.395,1.594-0.16,1.987
	c-3.586-0.156-6.371-0.238-9.316-0.238c-3.346,0-5.497,0.082-8.284,0.238c-0.558-0.394-0.638-1.51-0.158-1.987l2.152-0.24
	c1.829-0.16,3.102-0.719,3.5-1.591c1.114-2.869,1.034-12.587,1.034-16.404v-23.022c0-2.225-0.076-3.896-1.754-5.724
	c-1.108-1.119-3.022-1.671-4.932-1.915l-1.353-0.157c-0.481-0.479-0.481-1.672,0.156-1.991c3.349,0.235,7.57,0.235,9.002,0.235
	c1.273,0,2.627-0.075,3.66-0.235c1.594,4.063,11.07,14.572,13.619,17.52l7.723,8.679c5.414,6.209,9.4,10.592,13.139,14.415h0.162
	c0.32-0.396,0.32-1.672,0.32-3.346v-17.043c0-3.742-0.084-14.092-1.598-16.481c-0.475-0.718-1.748-1.195-4.939-1.595l-1.35-0.157
	c-0.559-0.479-0.475-1.756,0.162-1.991c3.662,0.16,6.364,0.235,9.396,0.235c3.427,0,5.494-0.075,8.199-0.235
	c0.637,0.396,0.637,1.512,0.16,1.991l-1.113,0.157c-2.545,0.399-4.145,1.035-4.461,1.673c-1.35,2.868-1.193,12.739-1.193,16.403
	V300.185"/>
<path d="M426.419,266.665c5.82-4.545,13.221-6.768,21.498-6.768c4.305,0,10.357,0.87,14.1,1.905c0.955,0.244,1.516,0.401,2.23,0.317
	c0.084,1.836,0.479,6.851,1.115,11.707c-0.4,0.563-1.591,0.636-2.154,0.16c-1.191-5.41-4.771-11.623-16.318-11.623
	c-12.186,0-22.537,7.723-22.537,24.211c0,16.718,10.588,25.953,23.65,25.953c10.271,0,14.812-6.687,16.645-11.381
	c0.553-0.401,1.75-0.238,2.07,0.312c-0.559,4.144-2.625,9.404-3.821,10.912c-0.959,0.156-1.918,0.478-2.786,0.798
	c-1.757,0.637-7.49,1.83-12.586,1.83c-7.168,0-14.012-1.431-19.828-5.334c-6.369-4.382-11.311-11.628-11.311-21.9
	C416.386,278.924,420.368,271.36,426.419,266.665"/>
<path d="M484.7,273.115c0-8.282-0.162-9.479-4.859-10.036l-1.278-0.157c-0.474-0.32-0.313-1.756,0.163-1.991
	c3.428,0.16,6.131,0.235,9.398,0.235h14.969c5.095,0,9.793,0,10.749-0.235c0.481,1.353,0.956,7.087,1.271,10.586
	c-0.315,0.48-1.589,0.641-1.983,0.163c-1.198-3.746-1.913-6.528-6.055-7.565c-1.673-0.397-4.219-0.478-7.727-0.478h-5.73
	c-2.387,0-2.387,0.159-2.387,3.185v15.927c0,2.23,0.234,2.23,2.621,2.23h4.619c3.344,0,5.818-0.159,6.773-0.479
	c0.951-0.316,1.512-0.795,1.909-2.786l0.641-3.263c0.393-0.479,1.745-0.479,2.065,0.078c0,1.91-0.32,5.015-0.32,8.047
	c0,2.86,0.32,5.892,0.32,7.638c-0.32,0.56-1.673,0.56-2.065,0.082l-0.72-3.103c-0.318-1.437-0.879-2.634-2.472-3.028
	c-1.116-0.323-3.024-0.398-6.132-0.398h-4.619c-2.387,0-2.621,0.075-2.621,2.152v11.229c0,4.219,0.234,6.924,1.508,8.28
	c0.957,0.955,2.627,1.827,9.633,1.827c6.134,0,8.446-0.312,10.197-1.19c1.438-0.797,3.583-3.583,5.652-7.727
	c0.558-0.397,1.675-0.158,1.992,0.559c-0.556,2.785-2.549,8.923-3.582,11.066c-7.166-0.156-14.26-0.238-21.344-0.238h-7.164
	c-3.424,0-6.137,0.082-10.834,0.238c-0.473-0.238-0.639-1.51-0.158-1.987l2.625-0.24c4.543-0.399,4.943-1.591,4.943-9.955V273.115"
	/>
<g>
	<defs>
		<rect id="SVGID_1_" y="0.645" width="755.999" height="314.355"/>
	</defs>
	<clipPath id="SVGID_2_">
		<use xlink:href="#SVGID_1_"  style="overflow:visible;"/>
	</clipPath>
	<path class="st1" d="M546.638,315c-6.686,0-10.909-2.068-12.42-2.945c-0.959-1.75-2-7.406-2.153-11.146
		c0.398-0.562,1.597-0.725,1.909-0.243c1.198,4.062,4.462,11.862,13.701,11.862c6.691,0,9.955-4.375,9.955-9.155
		c0-3.501-0.719-7.408-6.531-11.15l-7.566-4.938c-3.984-2.627-8.6-7.163-8.6-13.696c0-7.56,5.891-13.69,16.244-13.69
		c2.47,0,5.338,0.394,7.409,1.033c1.036,0.235,2.152,0.48,2.782,0.48c0.72,1.912,1.432,6.372,1.432,9.711
		c-0.315,0.479-1.591,0.717-1.989,0.238c-1.034-3.816-3.181-8.996-10.821-8.996c-7.809,0-9.479,5.18-9.479,8.84
		c0,4.617,3.822,7.882,6.764,9.792l6.373,3.982c5.014,3.106,9.952,7.728,9.952,15.29C563.599,309.03,556.988,315,546.638,315"/>
	<path class="st3" d="M119.642,88.434l-0.004-84.867c-68.178-6.574-119.637,0-119.637,0s-0.002,84.861,0,84.881
		c5.433,57.529,59.314,64.287,59.826,64.193C69.45,150.907,114.624,141.823,119.642,88.434"/>
</g>
<path class="st0" d="M751.806,11.362l0.048-0.094l-0.007-0.104c-0.1-1.837-0.156-4.208-0.156-6.679V3.997l-0.477,0.107
	c-0.615,0.141-3.742,0.141-6.764,0.141h-9.344c-1.912,0-3.611-0.043-5.867-0.149l-0.1-0.006l-0.09,0.045
	c-0.42,0.205-0.49,0.801-0.502,0.979c-0.029,0.445,0.102,0.797,0.357,0.965l0.977,0.163c2.578,0.31,2.703,0.59,2.703,6.012V30.53
	c0,5.368-0.125,5.646-2.701,5.958l-1.402,0.167l-0.096,0.093c-0.289,0.288-0.334,0.76-0.279,1.106
	c0.061,0.377,0.234,0.664,0.477,0.787l0.092,0.046l0.102-0.005c2.377-0.098,4.09-0.15,6.33-0.15c2.049,0,3.809,0.054,6.74,0.15
	l0.098,0.004l0.09-0.045c0.332-0.166,0.475-0.617,0.498-0.986c0.025-0.44-0.104-0.787-0.359-0.953l-1.904-0.215
	c-2.588-0.22-2.742-0.554-2.742-5.957v-7.06c0-0.98,0-0.98,1.286-0.98h3.454c1.781,0,3.109,0.04,3.789,0.235
	c0.713,0.227,1.098,0.693,1.367,1.652l0.535,2.104l0.094,0.08c0.502,0.432,1.578,0.407,1.9-0.081l0.066-0.099v-0.117
	c0-0.527-0.04-1.205-0.086-1.959c-0.055-0.92-0.115-1.964-0.115-2.967c0-1.028,0.061-2.115,0.115-3.074
	c0.046-0.79,0.086-1.503,0.086-2.053v-0.117l-0.066-0.097c-0.24-0.364-0.756-0.403-0.965-0.403c-0.422,0-0.789,0.137-0.982,0.367
	l-0.535,2.194c-0.285,1.23-0.627,1.353-1.014,1.492c-0.535,0.18-2.103,0.287-4.189,0.287h-3.454c-1.286,0-1.286,0-1.286-0.98V8.241
	c0-1.641,0-1.641,1.137-1.641h3.096c2.098,0,3.754,0,4.824,0.293c2.178,0.566,2.828,2.023,3.268,4.514l0.025,0.136l0.105,0.091
	c0.195,0.169,0.467,0.261,0.768,0.261C751.14,11.895,751.618,11.731,751.806,11.362"/>
<path class="st0" d="M717.731,21.235c0-8.573-5.635-17.801-18.008-17.801c-10.527,0-18.465,7.872-18.465,18.312
	c0,8.745,6.342,17.597,18.465,17.597C709.989,39.343,717.731,31.558,717.731,21.235 M711.874,22.811
	c0,10.466-6.189,14.179-11.488,14.179c-10.475,0-13.271-10.605-13.271-16.87c0-10.579,6.328-14.332,11.748-14.332
	C708.466,5.788,711.874,14.958,711.874,22.811z"/>
<path class="st0" d="M670.349,109.356c0,21.93,16.324,41.303,43.373,41.303c23.516,0,42.277-17.91,42.277-42.522
	c0-21.441-14.135-41.789-42.277-41.789C688.624,66.348,670.349,84.989,670.349,109.356 M682.532,105.458
	c0-26.682,16.446-35.335,29.119-35.335c23.27,0,32.164,21.688,32.164,41.793c0,24-13.889,34.967-28.51,34.967
	C691.304,146.883,682.532,123.489,682.532,105.458z"/>
<path class="st0" d="M655.612,6.049c0.258-0.226,0.396-0.592,0.366-0.98c-0.028-0.389-0.222-0.731-0.517-0.914l-0.105-0.067
	l-0.123,0.008c-3.611,0.209-5.738,0.209-9.553,0l-0.104-0.006l-0.094,0.047c-0.283,0.142-0.479,0.428-0.535,0.783
	c-0.066,0.411,0.061,0.834,0.332,1.109l0.098,0.098l1.045,0.115c0.986,0.123,1.599,0.364,1.779,0.497
	c-0.16,0.726-1.936,4.021-3.015,6.019l-0.231,0.432c-1.223,2.365-2.633,4.912-4.418,7.973c-1.338-2.416-2.642-5.075-3.906-7.651
	c-0.498-1.012-0.992-2.019-1.488-3.008c-0.365-0.735-1.514-3.33-1.533-3.734c0-0.102,0.234-0.305,1.803-0.529l0.787-0.12
	l0.092-0.093c0.275-0.277,0.393-0.777,0.285-1.215c-0.082-0.348-0.301-0.602-0.599-0.699l-0.073-0.024l-0.076,0.006
	c-1.246,0.099-3.062,0.149-5.402,0.149c-2.35,0-4.211-0.047-5.861-0.149l-0.115-0.008l-0.104,0.059
	c-0.248,0.142-0.418,0.408-0.477,0.75c-0.068,0.406,0.037,0.832,0.276,1.111l0.091,0.106l1.559,0.277
	c1.346,0.227,2.02,0.34,3.729,3.65l5.988,11.68c1.434,2.764,1.582,3.336,1.582,6.117v2.588c0,5.51-0.125,5.793-2.693,6.061
	l-1.714,0.165l-0.099,0.1c-0.289,0.289-0.33,0.764-0.273,1.112c0.062,0.373,0.236,0.656,0.48,0.777l0.088,0.045l0.1-0.004
	c2.734-0.1,4.514-0.15,6.635-0.15c2.061,0,3.879,0.056,6.893,0.15l0.098,0.004l0.088-0.045c0.244-0.121,0.42-0.407,0.48-0.783
	c0.057-0.348,0.011-0.82-0.28-1.11l-0.101-0.099l-2.07-0.162c-2.35-0.178-2.686-0.565-2.686-6.061v-2.641
	c0-3.804,0.106-4.179,2.332-8.027l3.199-5.534c0.291-0.499,0.568-0.983,0.834-1.45c1.996-3.488,3.439-6.01,5.596-6.384l1.529-0.27
	L655.612,6.049"/>
<path class="st0" d="M637.821,68.176c-2.074-0.488-8.531-1.828-15.477-1.828c-18.398,0-30.459,5.725-38.621,14.254
	c-7.555,8.041-10.969,18.52-10.969,28.877c0,10.721,3.902,20.346,11.211,27.656c9.381,9.504,22.662,13.526,37.16,13.526
	c6.58,0,15.353-1.463,21.812-3.168c2.313-0.61,4.509-1.098,5.966-1.098c0.49-0.365,0.49-1.098,0.125-1.461
	c-2.191-0.853-2.925-3.777-2.925-8.65v-6.825c0-6.212,0.125-9.625,5.239-10.234l1.951-0.244c0.853-0.731,0.728-2.557-0.121-3.045
	c-4.021,0.242-8.166,0.363-12.916,0.363c-7.189,0-13.891-0.121-17.424-0.363c-0.854,0.363-0.975,2.559,0,3.045l5.361,0.611
	c7.553,0.852,7.918,1.584,7.918,11.817v4.875c0,3.896-0.607,6.091-1.216,6.943c-1.343,2.07-5.849,3.656-13.405,3.656
	c-24.49,0-36.554-18.4-36.554-41.791c0-18.275,10.362-35.09,33.997-35.09c12.428,0,21.564,4.143,24.977,17.301
	c0.732,0.731,2.926,0.611,3.291-0.365c-1.099-7.311-1.83-13.647-1.83-17.666C643.911,69.516,640.134,68.663,637.821,68.176"/>
<path class="st0" d="M617.05,3.467l0.037-0.14l-0.062-0.132c-0.188-0.378-0.712-0.42-0.932-0.42c-0.127,0-0.312,0.014-0.477,0.079
	l-0.127,0.051l-0.068,0.117c-0.652,1.132-0.922,1.223-3.623,1.223h-20.985c-2.272,0-3.291-0.118-3.503-1.254l-0.021-0.119
	L587.2,2.786c-0.141-0.141-0.369-0.209-0.699-0.209c-0.121,0-0.533,0.011-0.758,0.16l-0.14,0.094l-0.028,0.164
	c-0.355,2.029-1.107,5.242-1.912,7.502l-0.057,0.158l0.074,0.148c0.309,0.611,1.348,0.91,1.904,0.491l0.082-0.061l0.043-0.094
	c0.516-1.176,1.004-2.287,2.187-3.373c1.122-1.027,3.655-1.166,5.985-1.166h2.793c1.131,0,1.131,0,1.131,1.232V30.53
	c0,5.5-0.316,5.74-2.791,5.957l-1.827,0.151l-0.171,0.056c-0.305,0.187-0.475,0.566-0.454,1.017
	c0.017,0.342,0.151,0.766,0.485,0.931l0.088,0.044l0.098-0.004c3.105-0.094,4.98-0.15,7.043-0.15c1.984,0,3.62,0.048,6.635,0.15
	l0.098,0.004l0.09-0.043c0.418-0.207,0.488-0.803,0.5-0.98c0.027-0.442-0.102-0.792-0.354-0.961l-1.808-0.215
	c-2.538-0.219-2.688-0.553-2.688-5.957V7.77c-0.002-0.516-0.002-1.002,0.082-1.084c0.086-0.086,0.637-0.086,1.002-0.086h3.602
	c2.721,0,4.572,0.39,5.658,1.193c0.479,0.352,0.895,1.637,1.113,3.439l0.012,0.112l0.072,0.088c0.188,0.227,0.531,0.363,0.922,0.363
	c0.482,0,0.885-0.207,1.051-0.539l0.05-0.101l-0.013-0.112C616.153,9.586,616.503,5.499,617.05,3.467"/>
<path class="st0" d="M570.767,30.426V12.354c0-5.549,0.152-5.891,2.732-6.109l1.375-0.11l0.084-0.056
	c0.254-0.17,0.383-0.521,0.354-0.963c-0.013-0.178-0.084-0.775-0.5-0.981l-0.087-0.044l-0.1,0.005
	c-2.402,0.094-4.199,0.149-6.281,0.149c-2.178,0-3.924-0.053-6.383-0.149l-0.1-0.005l-0.091,0.045
	c-0.413,0.208-0.483,0.806-0.495,0.984c-0.027,0.441,0.102,0.791,0.354,0.959l0.084,0.056l1.369,0.108
	c2.588,0.22,2.74,0.562,2.74,6.111v18.072c0,5.466-0.129,5.75-2.754,6.062l-1.404,0.167l-0.094,0.095
	c-0.289,0.289-0.332,0.762-0.277,1.109c0.06,0.375,0.234,0.661,0.478,0.782l0.091,0.045l0.1-0.004c2.584-0.1,4.281-0.15,6.383-0.15
	c2.018,0,3.697,0.05,6.281,0.15l0.1,0.004l0.087-0.045c0.419-0.207,0.489-0.805,0.5-0.982c0.026-0.441-0.103-0.789-0.354-0.957
	l-1.443-0.214C570.894,36.176,570.767,35.892,570.767,30.426"/>
<path class="st0" d="M562.401,145.665c-5.24-0.612-6.822-2.438-10.357-12.916l-16.69-48.979c-1.827-5.359-3.776-10.965-5.362-16.326
	c-0.244-0.852-1.095-1.096-1.826-1.096c-1.342,1.584-3.41,3.775-6.336,4.631c0.367,1.949-0.365,4.262-2.072,8.646l-12.426,32.899
	c-5.117,13.646-8.529,21.566-10.725,27.17c-1.703,4.387-4.383,5.728-7.307,5.971l-4.021,0.365c-0.73,0.607-0.486,2.558,0.246,3.047
	c3.288-0.123,7.672-0.366,11.693-0.366c5.727,0.122,9.506,0.122,12.674,0.366c1.094-0.489,1.094-2.44,0.242-3.047l-4.021-0.365
	c-2.925-0.243-3.535-0.975-3.535-2.438c0-1.34,0.855-4.629,2.682-10.113l4.264-12.791c0.855-2.561,1.584-2.926,4.631-2.926h18.396
	c3.654,0,4.145,0.365,4.998,3.045l5.359,16.57c0.977,2.926,1.584,5.117,1.584,6.457c0,1.221-1.705,1.953-4.263,2.196l-3.534,0.365
	c-0.855,0.607-0.732,2.558,0.243,3.047c3.534-0.123,8.161-0.366,14.011-0.366c5.482,0,9.748,0.122,14.742,0.366
	c0.607-0.489,0.852-2.44,0-3.047L562.401,145.665 M530.968,112.524h-14.986c-3.412,0-3.533-0.123-2.559-2.924l7.676-21.199
	c1.339-3.654,2.557-6.58,2.923-7.192h0.245c0.732,1.463,1.826,4.756,2.799,7.678l6.581,19.86
	C534.745,112.038,534.501,112.524,530.968,112.524z"/>
<path class="st0" d="M535.94,11.035c0-1.96,0.734-5.247,5.652-5.247c4.477,0,5.842,2.912,6.529,5.449l0.076,0.146
	c0.162,0.198,0.436,0.307,0.768,0.307c0.383,0,0.898-0.154,1.123-0.494l0.064-0.098v-0.116c0-2.075-0.428-4.974-0.934-6.331
	l-0.096-0.254h-0.271c-0.358,0-1.034-0.09-1.681-0.289c-1.213-0.326-3.115-0.674-4.819-0.674c-6.427,0-10.745,3.666-10.745,9.121
	c0,4.637,3.543,7.666,5.656,9.059l4.824,3.152c3.506,2.254,3.988,4.59,3.988,6.779c0,2.71-1.842,5.446-5.957,5.446
	c-5.139,0-7.381-3.962-8.359-7.286l-0.049-0.107c-0.152-0.226-0.428-0.351-0.774-0.351c-0.337,0-0.823,0.13-1.084,0.496
	l-0.077,0.109l0.004,0.133c0.098,2.295,0.75,6.053,1.418,7.277l0.051,0.097l0.096,0.055c0.994,0.581,3.777,1.929,8.115,1.929
	c6.701,0,11.203-3.93,11.203-9.782c0-4.059-2.135-7.356-6.527-10.075l-4.064-2.54C538.528,15.989,535.94,13.948,535.94,11.035"/>
<path class="st0" d="M523.151,38.754c0.234-0.185,0.354-0.486,0.309-0.785c-0.041-0.277-0.213-0.5-0.459-0.596l-0.113-0.025
	c-1.211-0.088-2.434-0.584-3.279-1.332c-3.496-2.932-6.277-7.213-10.123-13.412c-0.266-0.428-0.305-0.624-0.298-0.707
	c1.687-0.705,6.45-3.192,6.45-8.783c0-4.252-2.406-6.401-4.422-7.451c-2.545-1.381-5.807-1.569-8.662-1.569
	c-4.648,0-8.256,0.13-11.354,0.406l-0.141,0.041c-0.295,0.147-0.49,0.475-0.523,0.873c-0.035,0.438,0.127,0.855,0.416,1.063
	l0.08,0.061l1.727,0.212c1.654,0.202,1.893,0.559,1.893,5.55v18.23c0,5.367-0.125,5.646-2.701,5.957l-1.422,0.17l-0.1,0.115
	c-0.287,0.334-0.314,0.818-0.246,1.16c0.068,0.342,0.236,0.594,0.473,0.711l0.088,0.043l0.1-0.004c2.258-0.093,4.104-0.15,6.33-0.15
	c2.099,0,3.861,0.057,6.025,0.15l0.102,0.005l0.09-0.046c0.373-0.186,0.464-0.672,0.488-0.873c0.051-0.449-0.065-0.838-0.315-1.043
	l-0.084-0.069l-1.175-0.167c-2.609-0.364-2.711-0.586-2.711-5.959v-6.4c0-0.725,0-0.725,1.996-0.725
	c1.949,0,2.611,0.468,3.285,1.455c0.772,1.121,1.668,2.541,2.537,3.916c0.908,1.436,1.766,2.793,2.441,3.752
	c3.486,4.967,6.117,6.56,10.826,6.56c0.98,0,1.838-0.097,2.354-0.269L523.151,38.754 M507.851,19.862
	c-1.449,1.099-3.428,1.24-4.99,1.24c-2.293,0-2.998-0.086-3.209-0.15c-0.059-0.21-0.059-0.809-0.059-1.39V7.682
	c0-1.141,0-1.234,2.91-1.234c5.709,0,7.732,4.002,7.732,7.429C510.235,16.69,509.478,18.593,507.851,19.862z"/>
<path class="st0" d="M481.614,31.315l0.025-0.123l-0.053-0.113c-0.219-0.489-0.758-0.707-1.193-0.707
	c-0.252,0-0.479,0.066-0.656,0.194l-0.121,0.143c-1.457,2.907-2.768,4.379-3.432,4.748c-1.092,0.545-2.627,0.721-6.324,0.721
	c-4.23,0-5.318-0.506-5.855-1.044c-0.721-0.764-0.863-2.417-0.863-5.012v-7.158c0-0.982,0-0.982,1.287-0.982h2.945
	c1.773,0,3.1,0.04,3.813,0.242c0.706,0.177,1.067,0.636,1.291,1.64l0.454,1.976l0.078,0.162c0.191,0.23,0.547,0.368,0.953,0.368
	c0.465,0,0.842-0.176,1.008-0.469l0.053-0.09v-0.105c0-0.496-0.039-1.151-0.084-1.885c-0.057-0.926-0.119-1.975-0.119-2.99
	c0-1.063,0.062-2.149,0.116-3.108c0.048-0.775,0.087-1.473,0.087-2.018v-0.103l-0.051-0.09c-0.168-0.296-0.547-0.473-1.012-0.473
	c-0.404,0-0.76,0.137-0.951,0.367l-0.488,2.255c-0.229,1.16-0.514,1.333-0.957,1.48c-0.543,0.182-2.072,0.285-4.191,0.285h-2.945
	c-1.287,0-1.287,0-1.287-1.033V8.241c0-1.641,0-1.641,1.137-1.641h3.654c2.154,0,3.801,0.05,4.832,0.295
	c2.312,0.578,2.777,2.043,3.482,4.258l0.096,0.304l0.072,0.129c0.172,0.211,0.465,0.327,0.826,0.327c0.35,0,0.84-0.121,1.064-0.457
	l0.078-0.116l-0.068-0.746c-0.262-2.957-0.503-5.469-0.777-6.24l-0.119-0.332l-0.342,0.084c-0.564,0.139-3.713,0.139-6.758,0.139
	h-9.545c-1.957,0-3.631-0.041-5.971-0.149l-0.102-0.006l-0.088,0.045c-0.418,0.205-0.49,0.799-0.502,0.977
	c-0.029,0.444,0.1,0.797,0.352,0.967l0.984,0.164c2.598,0.306,2.752,0.644,2.752,6.011V30.53c0,5.5-0.316,5.739-2.793,5.957
	l-1.812,0.164l-0.102,0.099c-0.287,0.288-0.332,0.76-0.277,1.106c0.061,0.377,0.234,0.664,0.479,0.785l0.09,0.045l0.1-0.004
	c2.932-0.096,4.699-0.15,6.891-0.15h4.568c4.43,0,8.879,0.048,13.6,0.15l0.25,0.006l0.109-0.227
	C479.983,37.036,481.259,33.096,481.614,31.315"/>
<path class="st0" d="M446.788,6.029c0.274-0.277,0.32-0.759,0.274-1.089c-0.048-0.369-0.212-0.651-0.46-0.793l-0.102-0.059
	l-0.117,0.008c-1.701,0.102-3.258,0.149-4.9,0.149c-1.996,0-3.91-0.054-5.252-0.149l-0.119-0.009l-0.104,0.06
	c-0.281,0.161-0.471,0.498-0.51,0.899c-0.039,0.406,0.09,0.78,0.348,1.003l0.091,0.079l1.032,0.115
	c1.775,0.203,1.939,0.575,1.941,0.575c0,0.332-0.049,0.841-0.43,1.839c-0.875,2.211-3.294,8.025-4.715,11.361
	c-0.377,0.863-0.852,1.99-1.375,3.23c-0.963,2.283-2.135,5.06-3.131,7.243c-2.402-5.519-4.614-11.056-6.859-16.713
	c-1.486-3.646-2.339-6.297-2.498-6.957c0.078-0.16,0.518-0.379,2.037-0.58l0.875-0.116l0.088-0.076
	c0.26-0.222,0.391-0.595,0.352-1.001c-0.039-0.402-0.23-0.739-0.51-0.901l-0.099-0.057l-0.116,0.006
	c-2.258,0.106-4.033,0.149-6.125,0.149c-2.119,0-3.738-0.045-5.254-0.149l-0.125-0.009l-0.107,0.068
	c-0.295,0.183-0.488,0.525-0.52,0.914c-0.029,0.388,0.107,0.754,0.367,0.98l0.092,0.079l1.035,0.115
	c1.975,0.229,2.648,1.134,3.797,3.923l8.934,22.03c1.063,2.638,1.844,4.894,2.318,6.705l0.049,0.189l0.182,0.074
	c0.295,0.12,0.6,0.179,0.908,0.179c0.291,0,0.568-0.077,0.777-0.217l0.113-0.075l0.041-0.131c0.871-2.725,3.309-8.709,5.266-13.211
	l2.74-6.244c2.354-5.338,4.311-9.361,5.66-11.629c0.646-1.045,1.326-1.506,2.334-1.591l1.672-0.112L446.788,6.029"/>
<path class="st0" d="M413.64,76.702c-9.26,7.189-15.354,18.765-15.354,32.291c0,15.715,7.557,26.802,17.303,33.506
	c8.895,5.968,19.371,8.162,30.338,8.162c7.797,0,16.572-1.828,19.25-2.805c1.342-0.484,2.802-0.973,4.266-1.217
	c1.826-2.314,4.995-10.355,5.848-16.693c-0.486-0.852-2.316-1.094-3.166-0.487c-2.805,7.19-9.75,17.424-25.467,17.424
	c-19.98,0-36.188-14.134-36.188-39.72c0-25.219,15.843-37.04,34.482-37.04c17.668,0,23.15,9.504,24.977,17.791
	c0.852,0.729,2.682,0.608,3.289-0.244c-0.973-7.431-1.582-15.107-1.705-17.91c-1.098,0.121-1.95-0.123-3.41-0.488
	c-5.729-1.584-14.988-2.924-21.566-2.924C433.864,66.348,422.534,69.76,413.64,76.702"/>
<path class="st0" d="M398.062,30.426V12.354c0-5.493,0.179-5.893,2.739-6.109l1.369-0.11l0.084-0.056
	c0.254-0.17,0.383-0.522,0.354-0.967c-0.01-0.177-0.082-0.772-0.5-0.977l-0.087-0.044l-0.101,0.005
	c-2.398,0.094-4.193,0.149-6.279,0.149c-2.182,0-3.924-0.053-6.379-0.149l-0.1-0.005l-0.088,0.044
	c-0.42,0.205-0.49,0.803-0.502,0.981c-0.027,0.443,0.102,0.795,0.355,0.963l0.084,0.056l1.367,0.108
	c2.562,0.218,2.742,0.618,2.742,6.111v18.072c0,5.465-0.131,5.749-2.754,6.062l-1.402,0.167l-0.096,0.095
	c-0.291,0.289-0.334,0.764-0.277,1.112c0.061,0.375,0.236,0.66,0.48,0.78l0.09,0.044l0.1-0.004c2.578-0.1,4.273-0.15,6.379-0.15
	c2.01,0,3.756,0.052,6.279,0.15l0.101,0.004l0.087-0.043c0.42-0.207,0.49-0.805,0.502-0.982c0.027-0.442-0.102-0.791-0.355-0.959
	l-1.438-0.214C398.19,36.175,398.062,35.891,398.062,30.426"/>
<path class="st0" d="M372.581,130.192V86.817c0-12.914,0.242-14.987,7.432-15.596l3.045-0.242c0.73-0.49,0.486-2.682-0.245-3.047
	c-6.09,0.244-10.231,0.365-15.106,0.365c-5.117,0-9.26-0.121-15.351-0.365c-0.73,0.365-0.974,2.557-0.243,3.047l3.045,0.242
	c7.188,0.609,7.432,2.682,7.432,15.596v43.375c0,12.914-0.244,14.619-7.432,15.473l-3.045,0.365
	c-0.731,0.73-0.487,2.681,0.243,3.047c6.091-0.244,10.234-0.366,15.351-0.366c4.875,0,9.016,0.122,15.106,0.366
	c0.731-0.366,0.976-2.561,0.245-3.047l-3.045-0.365C372.823,144.811,372.581,143.106,372.581,130.192"/>
<path class="st0" d="M378.862,6.029c0.244-0.245,0.366-0.644,0.322-1.038c-0.041-0.362-0.221-0.666-0.492-0.836l-0.105-0.067
	l-0.125,0.008c-1.666,0.096-2.988,0.149-5.207,0.149c-1.791,0-3.465-0.041-5.973-0.149l-0.078-0.004L367.13,4.12
	c-0.295,0.108-0.502,0.385-0.57,0.761c-0.082,0.453,0.054,0.912,0.349,1.168l0.09,0.078l0.98,0.115
	c1.743,0.217,2.627,0.477,2.866,0.838c0.605,0.958,0.955,4.711,0.955,10.297v10.866c0,0.491,0,1.06-0.033,1.449
	c-1.76-1.819-3.602-3.881-5.891-6.444l-7.061-7.922c-5.023-5.634-7.898-9.329-8.547-10.984l-0.115-0.289L349.845,4.1
	c-0.608,0.092-1.439,0.145-2.278,0.145c-0.887,0-3.589,0-5.706-0.149l-0.107-0.008l-0.097,0.049
	c-0.267,0.135-0.455,0.414-0.513,0.766c-0.069,0.422,0.052,0.865,0.309,1.125l0.097,0.097l0.996,0.117
	c1.353,0.169,2.362,0.551,2.906,1.096c0.948,1.035,1.017,1.972,1.017,3.389l0.001,15.134c0.002,2.454,0.009,8.202-0.627,9.837
	c-0.119,0.259-0.549,0.607-1.921,0.79l-1.507,0.166l-0.097,0.096c-0.225,0.225-0.34,0.586-0.309,0.969
	c0.031,0.381,0.199,0.707,0.459,0.892l0.111,0.079l0.137-0.008c1.765-0.098,3.127-0.15,5.259-0.15c1.718,0,3.435,0.043,5.922,0.15
	l0.135,0.006l0.108-0.078c0.238-0.17,0.398-0.44,0.449-0.761c0.058-0.372-0.037-0.757-0.26-1.056l-0.103-0.138l-1.753-0.168
	c-1.218-0.1-2.07-0.385-2.281-0.772c-0.547-0.965-0.861-4.724-0.861-10.315V14.332c0-0.908,0.016-1.877,0.106-2.566
	c0.807,0.902,2.151,2.49,3.36,3.92c0.829,0.98,1.597,1.889,2.093,2.459l11.779,13.4c3.912,4.453,5.787,6.664,6.471,7.633
	l0.117,0.165h0.203c0.666,0,1.164-0.309,1.334-0.827l0.027-0.08l-0.009-0.086c-0.069-0.591-0.151-2.603-0.151-8.836l-0.002-12.822
	c-0.008-2.602-0.025-8.014,0.721-9.596c0.064-0.129,0.674-0.561,2.551-0.855l0.84-0.119L378.862,6.029"/>
<path class="st0" d="M333.352,5.954c0.225-0.273,0.331-0.692,0.269-1.069c-0.052-0.316-0.217-0.576-0.466-0.731l-0.104-0.066
	l-0.123,0.008c-1.765,0.096-3.134,0.149-5.31,0.149c-1.946,0-3.832-0.049-5.765-0.149l-0.129-0.008l-0.109,0.073
	c-0.234,0.157-0.396,0.445-0.444,0.791c-0.053,0.38,0.041,0.747,0.262,1.005l0.104,0.124l1.431,0.109
	c1.166,0.096,1.958,0.408,2.23,0.873c0.59,1.043,0.916,4.707,0.916,10.314v5.841c0,5.982-1.693,13.112-9.763,13.112
	c-6.768,0-9.918-4.183-9.918-13.165V12.202c0-5.399,0.175-5.792,2.687-6.012l1.32-0.105l0.084-0.057
	c0.252-0.168,0.382-0.511,0.354-0.938c-0.024-0.355-0.167-0.791-0.499-0.955l-0.09-0.044l-0.099,0.005
	c-2.407,0.096-4.113,0.149-6.228,0.149c-2.084,0-3.881-0.055-6.277-0.149l-0.099-0.005l-0.089,0.044
	c-0.332,0.162-0.476,0.597-0.501,0.949c-0.029,0.43,0.099,0.774,0.352,0.944l0.085,0.057l1.37,0.105
	c2.512,0.22,2.688,0.613,2.688,6.012V24.18c0,6.14,1.264,9.928,4.095,12.281c2.236,1.912,5.517,2.882,9.749,2.882
	c3.999,0,7.824-1.47,9.98-3.831c2.461-2.637,3.659-6.691,3.659-12.396v-5.739c0-2.573,0-8.6,0.675-10.194
	c0.237-0.512,1.106-0.901,2.214-0.993l1.384-0.109L333.352,5.954"/>
<path class="st0" d="M274.991,70.979c0.731-0.49,0.487-2.682-0.244-3.047c-5.239,0.244-9.381,0.365-14.133,0.365
	c-5.238,0-9.382-0.242-15.352-0.365c-0.732,0.365-0.975,2.557-0.243,3.047l3.167,0.242c6.336,0.486,7.19,2.561,7.19,15.352v43.861
	c0,12.793-0.245,14.012-7.068,15.231l-2.071,0.365c-0.73,0.73-0.486,2.681,0.242,3.047c4.753-0.121,8.897-0.366,14.135-0.366
	c4.752,0,8.894,0.122,15.473,0.366c0.732-0.366,0.975-2.561,0.244-3.047l-3.532-0.365c-6.823-0.731-7.433-2.438-7.433-15.231v-17.18
	c0-3.654,0.243-3.898,6.092-3.898h34.846c5.847,0,6.092,0.244,6.092,3.898v17.18c0,12.793,0,14.012-7.433,15.231l-2.315,0.365
	c-0.73,0.73-0.487,2.681,0.244,3.047c5.361-0.244,9.748-0.366,14.742-0.366c4.753,0,8.894,0.122,14.743,0.366
	c0.73-0.366,0.974-2.561,0.244-3.047l-2.925-0.365c-7.067-0.854-7.309-2.438-7.309-15.231V86.573
	c0-12.791,0.242-14.621,7.309-15.352l2.559-0.242c0.732-0.49,0.486-2.682-0.244-3.047c-5.483,0.244-9.624,0.365-14.377,0.365
	c-4.994,0-9.139-0.121-14.742-0.365c-0.731,0.365-0.974,2.557-0.244,3.047l2.315,0.242c7.188,0.731,7.433,2.561,7.433,15.352v14.011
	c0,3.778-0.245,3.899-6.092,3.899h-34.846c-5.849,0-6.092-0.121-6.092-3.899V86.573c0-12.791,0.243-14.621,7.311-15.352
	L274.991,70.979"/>
<path class="st0" d="M270.077,31.315l0.026-0.123l-0.052-0.113c-0.22-0.489-0.758-0.707-1.195-0.707
	c-0.252,0-0.478,0.066-0.656,0.194l-0.123,0.143c-1.455,2.908-2.765,4.379-3.43,4.748c-1.092,0.545-2.628,0.721-6.325,0.721
	c-4.228,0-5.318-0.506-5.856-1.043c-0.719-0.766-0.86-2.418-0.86-5.013v-7.158c0-0.982,0-0.982,1.286-0.982h2.945
	c1.772,0,3.098,0.04,3.812,0.242c0.707,0.177,1.069,0.636,1.29,1.64l0.457,1.976l0.079,0.162c0.189,0.229,0.545,0.368,0.951,0.368
	c0.464,0,0.841-0.176,1.009-0.469l0.052-0.09v-0.105c0-0.496-0.04-1.151-0.084-1.885c-0.056-0.926-0.12-1.975-0.12-2.99
	c0-1.063,0.064-2.149,0.118-3.108c0.045-0.775,0.086-1.473,0.086-2.018v-0.103l-0.051-0.09c-0.169-0.297-0.546-0.473-1.012-0.473
	c-0.405,0-0.76,0.137-0.949,0.368l-0.49,2.254c-0.229,1.16-0.514,1.333-0.959,1.48c-0.541,0.182-2.068,0.285-4.189,0.285h-2.945
	c-1.286,0-1.286,0-1.286-1.033V8.241c0-1.641,0-1.641,1.133-1.641h3.657c2.155,0,3.802,0.05,4.83,0.295
	c2.314,0.578,2.779,2.043,3.484,4.258l0.098,0.304l0.07,0.129c0.172,0.211,0.466,0.327,0.824,0.327c0.352,0,0.841-0.121,1.067-0.457
	l0.076-0.114l-0.067-0.751c-0.263-2.956-0.504-5.466-0.777-6.236l-0.117-0.333l-0.344,0.084c-0.564,0.139-3.714,0.139-6.76,0.139
	h-9.545c-1.955,0-3.629-0.041-5.969-0.149l-0.101-0.006l-0.09,0.045c-0.417,0.205-0.488,0.799-0.5,0.977
	c-0.029,0.444,0.098,0.797,0.352,0.967l0.984,0.164c2.6,0.306,2.754,0.644,2.754,6.011V30.53c0,5.5-0.316,5.739-2.795,5.957
	l-1.813,0.164l-0.1,0.099c-0.29,0.289-0.334,0.762-0.278,1.11c0.06,0.375,0.235,0.66,0.479,0.781l0.088,0.045l0.099-0.004
	c2.933-0.096,4.701-0.15,6.89-0.15h4.571c4.427,0,8.875,0.048,13.597,0.15l0.251,0.006l0.109-0.227
	C268.444,37.043,269.721,33.103,270.077,31.315"/>
<path class="st0" d="M227.647,30.53V12.254c0-5.408,0.152-5.746,2.693-6.011l1.062-0.1l0.179-0.064
	c0.254-0.168,0.385-0.518,0.357-0.959c-0.011-0.179-0.08-0.778-0.498-0.985l-0.089-0.045l-0.101,0.006
	c-2.454,0.108-4.13,0.149-5.976,0.149c-2.2,0-3.974-0.057-6.123-0.149l-0.099-0.006l-0.09,0.045c-0.418,0.205-0.488,0.801-0.5,0.979
	c-0.029,0.443,0.099,0.795,0.352,0.965l1.142,0.164c2.593,0.266,2.746,0.603,2.746,6.011v5.835c0,1.236,0,1.236-2.146,1.236h-14.521
	c-2.147,0-2.147,0-2.147-1.236v-5.835c0-5.408,0.15-5.745,2.697-6.011l0.963-0.101l0.176-0.063c0.254-0.169,0.382-0.521,0.354-0.965
	c-0.012-0.178-0.083-0.774-0.501-0.979l-0.09-0.045l-0.099,0.006c-2.311,0.106-4.012,0.149-5.871,0.149
	c-1.327,0-2.483-0.038-3.745-0.077c-0.812-0.026-1.669-0.053-2.642-0.074l-0.096-0.002l-0.084,0.043
	c-0.418,0.204-0.489,0.797-0.501,0.975c-0.03,0.445,0.098,0.798,0.352,0.969l0.085,0.056l1.423,0.11
	c2.237,0.171,2.635,0.631,2.635,6.009V30.53c0,5.285-0.097,5.508-2.622,5.961l-0.983,0.173l-0.086,0.086
	c-0.291,0.289-0.335,0.762-0.279,1.11c0.06,0.375,0.235,0.66,0.479,0.781l0.087,0.043l0.097-0.002
	c0.698-0.016,1.364-0.04,2.03-0.064c1.2-0.042,2.441-0.086,3.85-0.086c1.907,0,3.527,0.047,6.435,0.15l0.1,0.004l0.09-0.045
	c0.332-0.166,0.473-0.619,0.496-0.986c0.025-0.44-0.106-0.787-0.359-0.953l-1.645-0.215c-2.436-0.262-2.746-0.506-2.746-5.957
	v-7.161c0-1.233,0-1.233,2.147-1.233h14.521c2.146,0,2.146,0,2.146,1.233v7.161c0,5.4-0.051,5.511-2.766,5.96l-1.091,0.171
	l-0.09,0.089c-0.289,0.291-0.332,0.766-0.276,1.114c0.063,0.373,0.238,0.658,0.482,0.778l0.09,0.045l0.1-0.005
	c2.43-0.107,4.204-0.15,6.123-0.15c2,0,3.762,0.054,6.127,0.15l0.1,0.004l0.089-0.043c0.419-0.207,0.489-0.803,0.501-0.98
	c0.029-0.442-0.1-0.792-0.354-0.961l-1.386-0.213C227.774,36.176,227.647,35.898,227.647,30.53"/>
<path class="st0" d="M185.905,3.467l0.039-0.144l-0.067-0.133c-0.195-0.385-0.762-0.415-0.931-0.415
	c-0.127,0-0.312,0.014-0.476,0.08l-0.126,0.05l-0.068,0.117c-0.654,1.132-0.924,1.223-3.622,1.223h-20.987
	c-2.273,0-3.291-0.118-3.506-1.254l-0.021-0.119l-0.086-0.086c-0.142-0.141-0.371-0.209-0.701-0.209
	c-0.122,0-0.534,0.011-0.756,0.162l-0.139,0.092l-0.027,0.164c-0.357,2.021-1.108,5.23-1.914,7.502l-0.055,0.158l0.074,0.148
	c0.305,0.611,1.346,0.908,1.902,0.49l0.083-0.06l0.041-0.094c0.515-1.173,1.001-2.279,2.19-3.373
	c1.118-1.027,3.651-1.166,5.982-1.166h2.79c1.135,0,1.135,0,1.135,1.232V30.53c0,5.5-0.316,5.739-2.791,5.957l-1.826,0.151
	l-0.173,0.056c-0.302,0.186-0.471,0.564-0.452,1.013c0.016,0.342,0.15,0.768,0.482,0.934l0.088,0.045l0.098-0.004
	c3.109-0.094,4.986-0.15,7.044-0.15c1.982,0,3.622,0.048,6.64,0.15l0.099,0.004l0.088-0.045c0.332-0.166,0.475-0.618,0.496-0.986
	c0.027-0.439-0.103-0.787-0.355-0.953l-1.806-0.215c-2.539-0.219-2.69-0.553-2.69-5.957V7.779c0-0.52,0-1.01,0.083-1.093
	C171.77,6.6,172.32,6.6,172.685,6.6h3.602c2.721,0,4.571,0.39,5.659,1.193c0.481,0.353,0.897,1.638,1.114,3.438l0.013,0.114
	l0.073,0.089c0.186,0.226,0.531,0.361,0.92,0.361c0.482,0,0.884-0.207,1.048-0.541l0.05-0.099l-0.011-0.112
	C185.009,9.581,185.36,5.493,185.905,3.467"/>
<g>
	<defs>
		<rect id="SVGID_3_" y="0.645" width="755.999" height="314.355"/>
	</defs>
	<clipPath id="SVGID_4_">
		<use xlink:href="#SVGID_3_"  style="overflow:visible;"/>
	</clipPath>
	<path class="st2" d="M151.325,108.993c0,15.715,7.555,26.802,17.301,33.506c8.895,5.968,19.373,8.162,30.338,8.162
		c7.799,0,16.57-1.828,19.25-2.805c1.341-0.484,2.804-0.973,4.264-1.217c1.828-2.314,4.996-10.355,5.849-16.693
		c-0.488-0.852-2.315-1.094-3.168-0.487c-2.803,7.19-9.748,17.424-25.464,17.424c-19.981,0-36.186-14.134-36.186-39.72
		c0-25.219,15.84-37.04,34.48-37.04c17.666,0,23.151,9.504,24.977,17.791c0.852,0.729,2.681,0.608,3.289-0.244
		c-0.975-7.431-1.584-15.107-1.705-17.91c-1.097,0.121-1.949-0.123-3.41-0.488c-5.729-1.584-14.988-2.924-21.568-2.924
		c-12.67,0-24.001,3.412-32.895,10.354C157.417,83.891,151.325,95.467,151.325,108.993"/>
	<path class="st2" d="M73.933,38.541c-0.34,0.227-0.574,0.088-1.142-0.523c0.02-0.33-0.038-3.037,0.093-3.189
		c-0.518-0.557-0.994-1.317-1.608-1.26c-0.888,0.072-2.021,1.625-2.301,2.027c-0.224,0.291,0.01,1.402,0.176,1.543
		c0.061,0.055,0.089,0.059,0.141,0.108c-0.418,0.392-1.164,1.416-1.148,2.171c0.011,0.772,0.384,1.514,0.831,1.932
		c0.764-0.533,1.241-1.268,2.511-1.756c0.158,0.592,0.575,0.684,1.07,1.057c0.298-0.324,1.377-1.651,1.615-1.883
		C74.411,38.541,74.273,38.309,73.933,38.541 M71.413,38.877c-0.34,0.243-0.758,0.455-1.238,0.692
		c-0.381-0.315-0.94-0.582-0.262-1.871c0.498,0.277,0.748,0.105,1.519,0.023C71.428,38.205,71.415,38.643,71.413,38.877z
		 M69.525,36.864c-0.139-0.114-0.178-1.141-0.018-1.399c0.324-0.494,0.529-0.592,0.787-0.592c0.234,0.016,1.138,0.635,1.091,1.053
		c0.044,0.274,0.053,0.84,0.051,1.416C70.76,37.426,70.283,37.502,69.525,36.864z M66.88,39.418
		c-0.482,0.225-0.968,0.049-1.015-0.507c-0.044-0.559-0.044-5.977,0-6.758c-0.372,0-1.419-0.02-1.766-0.053
		c0.029,0.73,0.296,7.027,0.216,7.902c-0.048,0.5,0.62,1.028,1.233,1.446c0.297-0.36,0.943-1.301,1.478-1.698
		C67.341,39.493,67.123,39.323,66.88,39.418z M76.139,13.694h0.523l0.634-0.549v-0.883l-0.855-0.83l-0.848,0.723l0.02,1.017
		L76.139,13.694z M64.897,13.538c0.542,0.013,1.104-0.147,1.695,0.718c0.681,0.981,2.82,5.578,3.331,7.512
		c0.252-0.406,2.387-6.596,2.51-7.25c0.152-0.641,0.603-1.268,1.23-1.453c0.647-0.174,0.588-0.449,0.107-0.492
		c-0.484-0.059-2.087,0.076-2.664,0.168c-0.578,0.088-0.578,0.369-0.096,0.427c0.479,0.049,0.571,0.151,0.824,0.795
		c0.231,0.651-0.925,3.596-1.212,4.289c-0.338-0.505-1.563-3.201-1.563-3.564c0-0.264,0.54-0.525,0.772-0.588
		c0.453-0.141,0.443-0.451,0.102-0.518c-0.959-0.136-4.334-0.433-4.93-0.507C64.571,13.038,64.376,13.538,64.897,13.538z
		 M74.251,16.147l1.31,0.752l0.058,3.517c0.101,0.42,0.448,0.829,0.969,1.348h1.05l1.127-1.465c-0.818-0.14-1.155-0.291-1.726-0.941
		l0.022-3.637l-1.151-1.15l-0.393,0.043L73.711,16.2C73.524,16.477,74.01,16.477,74.251,16.147z M93.419,29.069
		c0.266,0.072,0.76,0.16,1.234,0.183c0.324,0.03,0.219-0.478-0.017-0.578c-0.254-0.095-0.784-0.193-1.119-0.193
		C93.181,28.481,93.003,28.957,93.419,29.069z M83.056,26.284c0.398,0.441,0.798,0.941,1.397,0.941
		c0.585,0.004,1.194-0.268,1.383-0.51c-0.484-0.388-1.583-1.547-1.804-1.763c-0.557,0.308-2.976,1.564-3.181,3.015
		c-0.295,2.139,0.382,2.567,1.322,3.74c0.527,0.668,1.412,0.7,1.814,0.596c0.434-0.301,2.018-1.805,2.194-1.994
		c0.159-0.184-0.072-0.354-0.269-0.164c-0.196,0.18-0.12,0.258-0.382,0.297c-0.268,0.043-1.346,0.222-1.973-0.104
		c-0.783-0.412-1.804-1.377-1.569-2.56C82.161,26.905,82.774,26.545,83.056,26.284z M80.054,25.168
		c-0.961-0.349-1.827-0.978-2.119-1.488c-0.258,0.213-1.117,1.15-1.6,1.445c-0.111-0.513-0.901-1.068-1.541-1.183
		c-0.208,0.222-1.715,1.373-2.403,1.707c-0.212,0.101-0.132,0.562,0.165,0.445c0.281-0.121,0.746-0.474,1.285-0.729
		c0.623,0.242,1.33,0.877,1.394,2.179c0.058,1.442-0.691,2.955-1.508,3.641c1.411-0.367,1.594-1.209,2.367-2.199
		c0.426,0.631,1.218,1.392,1.798,1.722c0.407-0.269,1.56-1.566,1.813-1.832c-0.831-0.222-2.438-1.072-2.839-1.97
		c-0.316-0.664-0.24-0.979,0.074-1.504C77.221,25.77,79.175,26.668,80.054,25.168z M78.403,39.12
		c-0.289,0.271-1.077,0.078-1.182-0.196c-0.082-0.287-0.183-3.613-0.046-3.679c0,0,0.95-0.022,1.203-0.012
		c0.199,0,0.213-0.606,0.018-0.606c-0.346-0.005-1.112-0.074-1.157-0.21c-0.113-0.313,0.028-1.327,0.225-1.739
		c0.202-0.416-0.185-0.598-0.338-0.191c-0.156,0.431-1.153,1.48-2.167,1.98c-0.576,0.287,0.768,0.819,0.679,0.795
		c-0.019,1.524-0.327,4.016,0.198,4.807c0.321,0.484,1.06,0.801,1.552,0.611c0.474-0.189,1.078-1.135,1.257-1.289
		C78.997,39.127,78.697,38.848,78.403,39.12z M90.461,36.916c-0.326-0.369-0.759-0.878-1.421-1.392
		c-0.398,0.271-1.545,1.32-2.029,1.596c0.698,0.019,1.74,0.25,1.778,0.898c0.025,0.527-0.038,3.812,0,4.414
		c0.427,0.092,0.933,0.049,1.556,0.014c0.029-0.465,0.018-4.254,0.029-4.715c0.209-0.115,0.454-0.233,0.576-0.34
		c0.24,0.18,0.973,1.02,1.397,1.246c0.289-0.221,1.049-0.887,1.382-1.201c0.354-0.35-0.028-0.572-0.333-0.291
		c-0.241-0.281-0.891-0.82-1.473-1.232C91.588,36.188,90.9,36.688,90.461,36.916z M80.429,16.651
		c-0.006,1.537,0.215,3.842,0.543,4.765c0.203,0.551,0.827,1.444,1.257,1.172c0.278-0.175,0.881-1.373,1.071-1.523
		c0.334-0.272,0.008-0.733-0.27-0.455c-0.309,0.269-0.571-0.153-0.656-0.432c-0.102-0.273-0.385-3.654-0.242-3.721
		c0,0,2.728-0.33,3-0.33c0.185,0,0.195-0.597,0-0.597c-0.346,0-2.653,0.049-2.711-0.082c-0.168-0.494-0.211-1.096,0.185-1.93
		c0.198-0.418-0.185-0.592-0.334-0.174c-0.146,0.41-1.3,2.006-2.501,2.522C79.154,16.108,80.524,16.676,80.429,16.651z
		 M90.102,25.606c-2.031,0.721-3.285,2.324-3.341,4.219c-0.037,1.107,0.906,3.392,2.853,3.404c0.6-0.576,1.234-1.188,1.864-1.604
		c0.399-0.72,0.986-1.888,0.948-2.775C92.373,27.758,91.703,26.139,90.102,25.606z M90.246,32.055
		c-0.376-0.183-1.747-1.24-2.061-2.051c-0.411-1.091-0.411-2.299,0.75-3.007c0.908,0.333,1.965,1.226,2.06,2.046
		C91.125,30.106,90.818,31.366,90.246,32.055z M93.396,30.2c0.261,0.078,0.738,0.148,1.227,0.183
		c0.308,0.039,0.207-0.476-0.029-0.572c-0.24-0.088-0.769-0.189-1.096-0.195C93.145,29.616,92.979,30.073,93.396,30.2z
		 M85.829,21.422c0.008,0.77,0.7,1.883,1.164,2.301c0.516-0.398,1.277-1.064,2.395-1.281c0.123,0.539,0.38,0.863,0.807,1.17
		l1.459-1.596c0,0-0.648-0.51-1.033-0.98c0-0.334,0-3.53,0.142-3.702c-1.099-0.978-1.9-1.101-2.372-1.041
		c-0.889,0.135-1.798,1.274-2.087,1.657c-0.211,0.3-0.157,0.679,0,0.822c0.177,0.144,0.406,0.289,0.648,0.435
		c-0.041-0.025-0.079-0.048-0.121-0.066C86.415,19.532,85.81,20.659,85.829,21.422z M88.147,22.442
		c-0.392-0.319-1.413-1.551-0.661-2.928c-0.103-0.062-0.212-0.117-0.311-0.182c0.691,0.389,1.5,0.729,2.137,0.934
		c-0.006,0.547-0.022,1.041-0.022,1.221c-0.002,0.232,0.016,0.422,0.037,0.605C88.952,22.114,88.626,22.213,88.147,22.442z
		 M86.667,18.582c-0.138-0.107-0.15-0.169,0.016-0.437c0.328-0.486,0.7-0.912,0.961-0.893c0.222,0,1.664,0.772,1.618,1.178
		c0.05,0.287,0.059,0.893,0.054,1.5C88.597,19.674,87.181,19.008,86.667,18.582z M85.882,39.676
		c-0.125-0.547,0.03-2.623,0.045-3.512c-0.339-0.513-0.897-1.13-1.467-1.556c-0.402,0.367-0.945,0.857-1.582,1.527
		c0.474-0.064,1.408,0.127,1.452,0.526c0.028,0.513,0.106,1.638,0,2.511c-0.106,0.879-2.474,0.475-2.506-0.117
		c-0.053-0.609,0.121-2.361,0.134-3.191c-0.336-0.514-0.533-0.795-1.152-1.256c-0.358,0.363-0.982,0.781-1.567,1.43
		c0.485,0.033,0.887,0.138,1.119,0.601c0.239,0.461,0.037,2.402,0.071,3.15c0.039,0.727,0.478,0.881,1.054,1.483
		c0.575-0.147,2.178-0.817,2.719-1.188c-0.049,0.596,0.705,1.266,1.15,1.397c0.299-0.326,0.624-0.504,1.062-0.912
		C85.986,40.284,86.042,40.245,85.882,39.676z M65.865,30.998c1.109,0.627,2.972,0.5,4.367,0.131
		c0.53-0.154,0.816-0.185,0.798,0.272c0,0.285,0.401,0.224,0.401,0.012c0-0.211,0.019-2.37,0.019-2.608c0-0.269-0.39-0.23-0.39,0
		c0,0.359,0,0.467-0.354,0.981c-0.961,1.421-3.365,1.365-4.652-0.373c-0.441-0.592-0.841-1.383-0.33-1.534
		c0.505-0.154,2.052,0.166,3.074,0.252c0.614,0.041,2.027,0.184,2.205,0.286c0.158,0.119,0.396,0.267,0.396-0.042
		c0.014-0.302,0.014-1.295,0.014-1.601c0-0.297-0.23-0.154-0.403-0.049c-0.175,0.123-1.683,0.373-2.286,0.481
		c-0.608,0.113-2.478,0.263-2.971,0.095c-0.502-0.168-0.335-1.178,0.112-1.756c1.304-1.722,3.936-1.603,4.888-0.168
		c0.326,0.498,0.326,0.616,0.326,0.991c0,0.226,0.379,0.252,0.379,0c0.021-0.245,0.031-2.85,0.031-3.057
		c0-0.203-0.382-0.277-0.382,0c0,0.189-0.419,0.301-0.831,0.189c-0.817-0.257-3.199,0.112-4.261,0.694
		c-0.942,0.537-2.391,1.779-2.371,3.338C63.671,30.106,64.694,30.325,65.865,30.998z M54.288,24.473h0.493l0.591-0.533v-0.848
		l-0.791-0.82l-0.796,0.717l0.016,0.984L54.288,24.473z M45.093,20.756c0.587,0,1.318-0.758,1.681-0.935
		c0.779-0.383,0.489-0.76-0.398-0.557c-1.94,0.488-2.847-1.066-3.04-1.482c0.783-0.801,2.116-2.112,2.928-2.778
		c-0.537-0.494-0.758-1.314-1.711-1.384c-0.831,0.023-2.77,0.964-3.11,3.427C41.117,19.409,43.336,20.686,45.093,20.756z
		 M43.868,14.422c0.219,0.541,0.781,0.932,1.094,1.121c-0.553,0.537-1.41,1.51-1.768,1.774C42.705,15.741,42.89,15.2,43.868,14.422z
		 M56.078,18.292c0.288-0.01,0.502-0.667-1.059-0.756C54.713,17.52,54.235,18.362,56.078,18.292z M55.736,26.286l-0.668-0.987
		l-0.356,0.047l-1.538,1.418c-0.414,0.371-0.044,0.549,0.418,0.139l0.794,0.484l0.028,3.33c0.081,0.399,0.432,0.535,0.921,1.041
		l0.862-0.74l0.683-0.736c-0.766-0.145-0.766-0.094-1.174-0.461L55.736,26.286z M56.049,19.391c0.287,0.033,0.672-0.644-1.053-0.75
		C54.68,18.622,54.2,19.202,56.049,19.391z M30.142,31.088c0.285-0.57,0.412-0.759,0.918-1.418c-0.992,0.16-1.756-0.019-2.479-0.566
		c-1.49-1.156-1.029-3.016-0.59-3.652c0.804-1.194,1.946,0.511,2.151,0.744c0.265-0.317,0.724-0.77,1.171-1.123
		c-0.443-0.586-0.806-1.131-1.107-1.485c-0.953,0.342-2.353,1.198-2.95,2.084c-0.864,1.321-1.337,3.405,0.16,4.625
		C28.12,30.885,28.704,31.344,30.142,31.088z M119.638,3.567c-68.178-6.574-119.637,0-119.637,0s-0.002,84.861,0,84.881
		c5.433,57.529,59.314,64.287,59.826,64.193c9.623-1.734,54.797-10.818,59.815-64.207L119.638,3.567z M98.614,18.733
		c4.449,1.93,6.187,0.187,7.617,0.187c4.393,0,4.614,4.098,4.614,4.098c0.057,0.447,0.099,0.762,0.127,0.969
		c-0.03-0.207-0.073-0.522-0.135-0.969c-0.098-0.695-2.093-1.098-3.503-0.482c-1.974,0.863-6.917,3.685-8.72,3.152V18.733z
		 M98.489,33.086c0,0,0.82,1.457,7.916,0.422c3.858-0.564,4.44,3.989,4.44,3.989h-0.008c-0.949-0.754-2.859-1.096-4.152-0.262
		c-4.311,2.775-8.196,2.806-8.196,2.806V33.086z M60.668,11.276c0,0,10.011-4.695,17.294-2.008
		c8.918,3.293,19.225,1.836,19.225,1.836v36.531c-7.001,0.479-21.524-3.508-25.216-3.508c-7.619,0-11.303,2.975-11.303,2.975
		S60.679,12.52,60.668,11.276z M59.361,51.69c3.224-0.457,5.73,3.076,8.822,1.342c0.232,1.388-1.053,1.734-1.049,1.734
		c1.997,0.467,2.952-0.723,3.342-1.473c0.768,3.192-2.449,3.371-3.452,3.563c-0.002-0.002,1.63,0.467,1.715,1.531
		c0.213,2.697,1.948,2.469,2.322,2.256c-0.06,0.324-0.597,1.953-2.548,0.484c-0.33,0.327,0.533,0.828,0.703,2.17
		c0.22,1.694,0.166,3.264,2.122,4.297c-1.199,0.953-2.612-1.529-2.735-1.234c-0.139,0.334,1.666,1.244-0.321,5.929
		c-0.906-0.521-0.4-0.421-1.451-1.671c-0.805-0.672-1.121-0.825-0.449,0.285c1.172,1.465,1.448,4.812,1.044,5.717
		c-0.966-0.422-0.718-1.194-1.858-2.243c-0.104,0.448,0.35,2.666,1.528,3.729c2.035,1.838,2.755,4.057,2.793,4.494
		c0.161,1.668-0.364,3.867-0.562,6.02c-0.976-0.141-1.806-2.913-2.043-2.756c-0.288,0.187,0.123,2.713,1.963,4.431
		c0.892,2.606,0.534,4.004,0.297,4.098c-0.315,0.135-1.307-2.664-1.846-2.176c2.62,6.666,0.786,8.987,0.094,11.041
		c-0.542-2.105-0.816-3.679-1.494-6.064c-1.429,1.121-1.772,2.783-3.518,4.305c0-2.719-1.572-9.284-2.817-10.813
		c-0.058-0.07-2.252,5.885-3.251,8.531c-1.299,3.434-1.499,7.725,0,11.069c-3.236-4.604-3.583-13.168-0.791-14.325
		c0.242-0.611-0.168-2.627-0.791-2.379c-0.178,0.987-0.059,1.831-0.875,2.793c-2.143-0.628-1.167-3.242-0.974-4.109
		c2.779-3.332,1.042-4.103,0.912-4.016c-0.301,0.764-0.563,1.7-1.412,2.045c-1.783-3.064-0.639-7.871,2.746-11.465
		c0.143-1.341-1.515,1-2.594,0.918c-0.282-2.585,0.656-7.072,5.437-7.234c-0.913-0.267-1.402-0.434-1.623-1.195
		c1.445-0.215,5.979-0.561,5.23-4.139c-0.429,0.432-0.566,1.074-1.748,1.793c-0.794,0.482-1.66,0.525-2.109-0.174
		c2.102-0.697,1.408-3.254-1.338-2.502c-0.841,0.229-2.07-0.648-2.131-1.623c0.611,0.61,1.85,0.158,2.565-0.306
		c3.09-2.008,4.975,0.9,5.391,1.523c0.125,0,1.386-2.904-2.999-3.687c-0.367-1.02-1.369-2.827-4.346-2.598
		c-0.982-3.463-3.948-1.756-3.851-0.188c-3.154-2.322,0.055-5.254,1.328-5.705c0.883,0.073,0.688,2.869,2.238,2.399
		c0.375-0.114-1.205-1.926-0.599-2.75c1.422-0.813,1.39,1.041,2.091,0.351C56.817,52.498,58.212,51.821,59.361,51.69z M46.763,61.52
		c-0.952-1.621,1.132-3.168,1.132-3.168c-0.062,4.559,5.765,1.43,8.807,2.877c0.733,0.338,1.245,0.98,1.547,1.656
		C54.977,60.625,48.93,65.221,46.763,61.52z M24.051,10.792c0,0,9.526,1.265,13.44-0.245c13.307-5.133,21.498,0.602,21.498,0.602
		v35.924c0,0-4.745-2.575-10.316-2.946c-5.386-0.357-16.268,3.946-24.622,3.379V10.792z M17.821,19.391h4.533v4.461h-4.533V19.391z
		 M17.821,34.93h4.533v4.459h-4.533V34.93z M12.485,17.303c5.117,0,5.117,7.799,0,7.799C7.284,25.102,7.393,17.303,12.485,17.303z
		 M12.485,32.883c5.117,0,5.149,7.795,0,7.795C7.165,40.678,7.165,32.883,12.485,32.883z M18.651,107.211
		c-1.398-6.353-1.354-9.412-1.027-15.867c0.146-2.935,1.109-7.375,0.67-7.459c-0.418-0.08-7.07,17.053-8.676,20.41
		c-2.806-0.947,1.746-15.773,7.529-22.91c0.546-2.271-3.031,2.301-5.168,4.123c-1.959,1.67-4.439,3.848-7.14,3.1
		c3.469-3.67,11.424-10.533,12.308-12.25c0.742-1.471-5.426,4.578-11.944,2.33c4.218-2.26,14.058-7.283,14.074-10.785l-0.089-0.088
		c-0.107,0-7.573,4.711-12.424,2.449c3.614-2,16.132-9.953,19.555-12.209c1.616,0.348,2.27-0.234,2.785-0.596
		c-1.308,0.082-5.644,0.76-3.453-3.123c0.844,3.481,6.926,0.28,9.108-0.224c6.085-1.399,6.041,5.103,5.521,7.791
		c-0.193,1.002,1.865,1.713,2.878,1.57c-1.743,4.295-4.721,0.246-5.075,1.885c-0.145,0.664-2.138,1.183-2.129,2.836
		c0.012,2.254,0.894,1.021,0.975,2.771c0.09,1.694-0.723,0.375-0.539,2.207c0.292,2.908,5.103-0.386,7.091,0.399
		c0.995,0.394,1.655,1.283,2.624,1.109c0.283-0.232,0.156-1.332,0.112-1.725c-0.103-0.923-1.81-1.031-2.606-2.292
		c-0.692-1.1,0.786-4.411,1.586-5.383c1.148,5.463,6.269,3.752,7.032,9.496c0.483,1.623-1.759,3.429,0.059,6.074
		c-1.351,1.311-2.974,7.527-0.146,10.449c-0.481,1.324-1.11,4.375,1.406,6.158c-0.846,1.803-0.652,4.006,0.06,6.249
		c-1.566,0.005-1.255-8.788-10.643-9.069c-0.21-0.064-0.261,0.998,0.009,1.473c1.125,1.976,2.636,1.863,2.312,6.514
		c-0.111,1.589-1.044-0.278-1.542-0.719c-1.137-1.004-2.016-1.137-2.511-4.41c-3.814,2.992-3.439,6.613-3.201,8.453
		c0.002,0.004-0.842-2.295-1.805-4.653c-0.051-0.125,3.874-4.847,4.499-5.97c7.921-14.26-5.116,4.609-5.143,4.545
		c-0.701-1.627-1.314-3.028-1.727-3.469c0.101-0.197,2.276-2.623,3.259-4.67c6.127-12.758-3.641,4.248-3.989,3.935
		c-0.739-0.664-1.35-1.496-1.816-1.197c-0.11,1.959-0.579,1.694-0.444,3.694c-1.02,1.363-3.211,3.505-4.744,4.566
		c0,0-0.381-3.541-0.279-3.666c0.769-0.938,3.783-4.168,4.398-5.133c10.039-15.769-4.699,3.799-4.726,3.631
		c-0.105-0.625-0.913-1.654-1.773-2.531c0,0,3.255-4.436,4.057-6.086c6.108-12.559-4.91,5.566-5.032,5.502
		c-0.264-0.139-0.291-0.137-0.599-0.241c-0.307-0.103,0.337-3.617,0.763-5.732c0.826-4.185-1.392-0.812-1.996,5.818
		c-0.565,0.088-1.941,0.233-2.461,0.706c0.336,1.769,0.755,0.408,1.497,2.109c0.887,2.037-1.238,5.375,0.612,7.822
		c0.715,0.944,0.756,0.785,0.615,1.403C20.061,106.25,19.37,106.227,18.651,107.211z M30.742,105.266
		c-0.8-0.891-1.548-1.623-1.932-2.66c-0.094-0.738,0.499-0.779,2.201-2.481c0.025,1.563-0.086,2.719,0.369,4.307
		C32.118,106.827,31.748,106.088,30.742,105.266z M21.976,117.184c-1.435-2.725-2-4.984-2.766-7.566
		c1.09,0.738,2.372,1.064,3.548,1.566C24.214,114.993,22.793,118.737,21.976,117.184z M99.284,118.129
		c-1.339,1.942-1.883-1.83-0.73-5.482c1.637-0.652,3.273-1.92,4.385-3.373C102.292,112.45,101.196,115.395,99.284,118.129z
		 M105.03,106.215c-1.76,0.584-2.545,2.545-3.912,3.698c-4.271,4.218-10.674,2.689-15.721,4.949
		c-4.574,1.666-7.886,5.896-12.681,6.965c-1.41,0.455-1.643,1.16-0.744,1.134c0.526-0.013,3.449,3.038,8.127,0.686
		c1.56-0.787,6.412-3.488,7.232-3.645c-2.626,2.5-3.943,4.737-6.291,6.057c-1.436,0.805-7.286,2.9-13.121,1.766
		c-2.586-0.502-4.576,1.883-3.917,1.828c1.384-0.371,2.935-0.182,3.868,1.039c1.694,1.328,4.148,2.982,6.259,0.517
		c0.701-0.818,4.052-2.556,7.2,0.637c-3.35-0.174-3.018,5.85-9.362,5.143c-2.35-0.018-7.539-5.389-9.017-3.729
		c-2.623,2.948,5.635,5.744,2.059,9.451c-3.229,3.346-7.088-2.668-7.088-2.668c2.015,0.846,5.734,1.391,4.096-1.884
		c-0.65-1.301-1.885-2.471-1.885-4.877c-0.283-1.198-7.676,9.517-12.565,4.677c-1.922-1.902-5.812-6.074-9.338-7.664
		c9.335-0.793,10.757,2.944,11.204,3.543c2.984,4.028,5.744-0.062,6.378-0.781c0.973-1.107,2.349-2.629,1.862-2.861
		c-3.621-1.717-7.757-2.08-10.847-0.662c6.614-9.094,11.762-0.578,11.761-0.58c0.724,0.451-0.186-5.393-6.728-5.715
		c-4.086-0.201-7.682,3.476-10.5,3.472c-2.291-0.003-9.237-4.695-10.87-8.861c4.041,3.024,9.197,4.758,12.41,2.842
		c6.04-3.6,13.649,1.83,14.01,1.182c-1.687-1.323-5.531-6.473-15.904-3.538c-4.024,2.311-5.721-1.714-8.192-1.781
		c4.204-3.73,7.118-1.834,8.587-1.719c0.349,0-1.753-1.73-3.227-1.884c-11.462-1.194-18.723-4.344-18.723-4.344
		c-0.059,0,0.955-2.311,5.882-0.645c0,0-4.419-2.705-4.382-6.181c0.145-2.143,1.181-4.438-0.459-6.225
		c6.653-0.271,1.928,9.006,6.599,11.397c0.099,0.037-1.376-2.217,0.704-3.965c0.965,2.724,3.34,4.133,5.01,4.574
		c0.392-0.215,0.877-1.051,0.877-1.049c-1.758-2.906-1.989-6.293-1.517-10.174l0.07-0.037c0.378,0.018,1.019,1.332,1.468,2.299
		c0.97,2.088,0.946,5.09,2.88,7.564c1.07,1.362,1.733,2.723,2.694,3.385c0.414-0.967,0.108-2.627,0.043-3.07
		c-0.218-1.574-1.206-4.334,1.489-6.774c1.259,3.639,2.972,2.584,3.205,4.329c0.321,2.441,0.214,2.052-0.035,3.929
		c0.128,2.584,2.477,3.313,4.562,4.965c4.703,2.559,7.824,3.944,9.87,7.221c0.999-5.531-13.925-6.637-12.001-17.305
		c-0.199-4.262,0.531-4.619-2.489-7.221c5.989,0.174,9.251,10.004,9.577,11.799c0.599,3.297,2.601,3.469,5.35,7.768
		c0.394,0.144-4.915-11.455,1.415-21.383c0,0,2.133,5.158,1.128,8.541c-0.608,2.037-0.045,4.291,0.068,5.568
		c0.116,1.301-0.26-4.707,4.262-7.816c0.281,2.275,2.461,5.797,0.395,9.57c-2.511,4.59-2.694,2.94-2.732,8.588
		c0.227-0.097,0.878-3.892,2.6-6.049c3.643-4.55,1.041-7,4.596-10.945c0.282,1.973,0.785,1.192,0.998,2.947
		c0.477,3.946-3.642,8.26-2.731,8.129c1.048-0.148,2.731-1.062,3.294-4.052c0,0,1.517,2.73,0.13,3.64
		c-2.513,1.651-3.035,3.424-2.644,5.42c2.016-2.406,4.768-5.072,4.291-8.498c0.228-2.07,2.471-2.906,2.916-7.711
		c0.074-0.797,0.871-1.764,1.666-2.187c-0.348,2.697,1.75,5.49-0.635,8.793c0.543,0.289,2.561-2.579,5.507-1.532
		c-5.915,1.065-4.189,7.475-8.722,10.442c-1.366,0.894-1.132,1.898-1.541,2.011c4.047-0.23,7.166-5.05,7.706-5.416
		c4.069-2.752,4.958-3.171,6.585-7.632c0.636-1.696,0.174-2.444,2.428-4.731c0.988,2.256-0.447,6.93-0.789,7.938
		c-0.728,2.152-3.287,4.015-2.744,4.015c10.903-4.812,10.766-8.045,13.375-11.49c0.782-1.316,4.661-3.602,6.112-3.814
		c-0.354,0.718-1.862,1.927-1.932,3.232c-0.132,2.41-0.911,3.881-2.129,5.813C102.399,107.424,103.699,104.997,105.03,106.215z
		 M92.066,108.161c-1.422,1.248-2.35,1.691-2.04,1.07c0.346-0.691,0.602-1.275,0.795-1.791
		C90.887,107.266,92.066,108.161,92.066,108.161z M91.133,106.491c0.315-1.131,0.315-1.91,0.462-2.907
		c0.064-0.429,0.074-0.378,0.094-0.738c0.007-0.117,3.081,2.561,3.254,2.668c-0.772,0.967-1.432,1.313-2.168,2
		C92.255,107.065,91.103,106.6,91.133,106.491z M108.382,78.006c-2.762-2.855-5.936-10.119-7.24-9.058
		c-0.157,0.062,5.252,8.482,7.923,13.476c1.35,2.528,2.459,6.149,2.551,8.875c0.428,13.453-1.597,12.418-1.595,12.42
		c-3.153-10.601-4.627-22.914-9.225-28.594c-1.836-2.267,4.914,9.938,5.205,20.94c-1.301,0.34-4.729,1.709-5.556,3.055
		c0.439-7.413-1.955-14.692-2.718-16.452c-1.485-3.423,0.665,7.971,0.812,10.598c0.004,0.115-12.301-15.814-4.871-3.545
		c1.925,3.18,4.933,5.254,4.934,5.309c0.051,2.211-0.097,3.84-0.519,5.025c-0.756,0.606-16.754-21.287-7.91-6.125
		c1.096,1.879,7.51,7.569,7.457,7.684c-0.406,0.865-1.126,2.123-2.121,3.049c-0.168-0.168-3.69-2.764-3.715-2.922
		c-0.266-1.694-0.275-3.291-2.367-2.094c0,0-7.881-9.174-4.231-2.744c1.595,2.81,2.641,3.123,3.067,3.623
		c0,0-1.223,1.658-1.616,3.418c-0.159,0.705-6.833-7.403-4.214-2.309c0.838,1.631,3.89,3.412,3.858,3.528
		c-0.313,1.06-0.63,2.087-0.964,2.755c-0.42,0.846-6.28,5.518-6.272,5.514c0-0.002,1.145-3.701,3.637-5.514
		c1.422-1.041,1.426-0.812,2.369-1.404c-0.019-0.547-0.546-1.441-1.228-1.676c-0.856-0.302-3.63,0.202-3.63,0.202
		c0.26-1.387-0.954-4.379-0.938-7.67c-1.045,0.103-2.878,1.718-3.321,2.634c-0.321,5.454-1.506,3.819-2.614,7.743
		c-1.205-1.645,0.083-4.008-1.097-5.547c-1.626-2.118-1.872-3.545-2.111-6.151c0.379-0.211,2.037-2.043,0.527-5.888
		c-0.246-6.039,2.453-8.348-2.373-12.577c0.407-0.129,0.698-3.156,0.698-3.16c3.556,1.897,2.851-2.195,4.236-3
		c2.199-1.275,1.801-2.599,0.812-4.246c6.29,1.787-0.283,6.088,2.563,6.18c2.065,0.064,3.449-0.459,4.346-1.848
		c0.955-1.467-0.165-2.367,2.503-4.746c0.266-0.238,0.973-1.826-1.142-2.264c-0.463-0.095,0.004-1.906,0.004-1.906
		c-1.694,1.434-2.227,3.453-4.95,2.176c-1.394-0.654-2.298-0.01-2.869,0.266c0,0-0.291-1.139,0.864-1.526
		c2.98-1,3.716-2.189,3.553-2.84c-0.403-1.548-0.524,0-0.437-1.632c0.036-0.647,0.79-1.528,1.415-2.282
		c2.022-2.439,3.452-1.525,3.969-1.308c1.174-0.91,1.381-0.846,2.474-1.278c1.871-0.736,5.928,0.487,8.194,1.539
		c1.099,0.498,2.412,0.795,3.695,0.514c-0.013,0.66-0.477,1.016-0.937,1.15c-0.707,0.219-1.551,0-1.496,0.518
		c0.033,0.303,1.001,0.356,1.608,0.52c3.358,0.916,7.708,3.925,4.852,3.293c-0.337-0.077,2.059,1.791,3.868,4.216l6.405,6.223
		c-0.295,0.352-2.54,0.033-9.653-6.633c-1.012,0.903,8.651,8.186,12.64,15.916C115.146,81.666,110.175,79.856,108.382,78.006z
		 M36.545,16.758c0.027,0.52-0.055,3.711-0.011,4.297c0.397,0.086,0.883,0.047,1.447,0.018c0.044-0.457,0.023-4.459,0.023-4.903
		c0.214-0.119,0.432-0.236,0.538-0.334c0.234,0.178,0.697,0.854,1.071,1.075c0.288-0.213,1.024-0.678,1.34-0.997
		c0.331-0.326-0.022-0.56-0.316-0.279c-0.22-0.262-0.78-0.838-1.079-1.191c-0.319,0.263-1.048,0.703-1.456,0.929
		c-0.319-0.365-0.711-0.365-1.349-0.863c-0.354,0.27-1.136,0.844-1.557,1.354C35.939,16.08,36.498,16.123,36.545,16.758z
		 M32.409,26.092c-0.146,0.338,0.063,1.561,0.217,1.696c0.11,0.095,0.197,0.162,0.293,0.238c-0.553,0.513-1.071,0.951-1.056,1.715
		c0.024,0.736,0.609,1.39,1.364,1.734c0.405-0.615,1.036-0.994,1.711-1.152c0.057,0.588,0.194,1.017,0.579,1.312
		c0.277-0.306,1.384-1.263,1.599-1.48c0.235-0.221,0.059-0.485-0.215-0.221c-0.162,0.152-0.558-0.072-0.675-0.264
		c0-0.322,0-3.707,0.142-3.861c-0.501-0.543-0.976-1.687-1.537-1.627C33.989,24.258,32.772,25.243,32.409,26.092z M34.907,29.313
		c-0.006,0.182,0,0.338,0.004,0.504c-0.182,0.045-0.387,0.088-0.64,0.217c-0.344-0.293-1.975-0.827-0.907-1.69
		c0.656,0.387,0.909,0.086,1.543-0.306C34.911,28.59,34.907,29.114,34.907,29.313z M33.915,25.223
		c0.212,0.014,0.969,0.934,0.916,1.334c0.039,0.223,0.056,0.633,0.066,1.063c-0.939,0.607-1.238,0.587-1.884-0.143
		c-0.322-0.371-0.292-1.074-0.145-1.34C33.16,25.68,33.672,25.219,33.915,25.223z M29.157,22.008
		c1.026,0.604,2.442,0.213,3.737-0.162c0.512-0.139,0.576,0.186,0.823,0.549c0.418,0.56,0.757,0.203,0.458-0.252
		c-0.115-0.146-0.332-0.381-0.342-0.678c0-0.193,0.023-2.236,0.023-2.49c0-0.24-0.482-0.215-0.482,0
		c-0.022,0.363,0.032,0.98-0.291,1.482c-0.897,1.385-2.602,1.956-3.801,0.256c-0.408-0.562-0.504-1.416-0.556-2.025
		c-0.081-0.815,0.537-1.867,0.572-1.963c1.525-1.998,3.642-0.514,3.813,0.299c0.114,0.541,0.236,1.205,0.236,1.555
		c-0.014,0.23,0.486,0.207,0.496-0.032c0-0.25,0.013-3.322,0.013-3.537c0.01-0.199-0.403-0.263-0.412,0
		c-0.021,0.487-0.308,0.528-0.681,0.408c-0.772-0.23-2.483-0.597-3.477-0.025c-0.875,0.514-2.215,1.721-2.191,3.236
		C27.121,21.125,28.064,21.336,29.157,22.008z M49.061,18.547c-0.53,0.453-1.266,1.153-1.949,1.791
		c0.274,0.297,1.767,1.002,2.604,0.983c1.267-0.029,2.437-0.682,3.16-1.262c1.317-1.043,0.859-2.148-0.481-2.932
		c-0.127-0.076-0.251-0.099-0.378-0.123c0.832-0.66,1.557-1.248,1.746-1.48c-0.538-0.367-1.123-1.262-2.42-1.32
		c-1.305-0.053-2.776,1.125-3.254,1.867C47.454,17.051,48.232,17.911,49.061,18.547z M51.392,20.45
		c-0.774,0.355-2.159-0.645-2.375-1.055c0.284-0.246,0.818-0.668,1.416-1.143c0.441,0.2,0.888,0.399,1.377,0.686
		C52.517,19.338,52.153,20.098,51.392,20.45z M49.987,15.354c0.408,0.057,1.307,0.537,1.843,1.039
		c-0.116,0.094-0.448,0.361-0.808,0.65c-0.211,0.036-0.425,0.061-0.646,0.034c-0.664-0.096-0.983-0.596-1.289-0.997
		C48.771,15.661,49.587,15.311,49.987,15.354z M40.872,29.256c-0.221,0.217-0.801-0.287-0.826-0.322
		c-0.189-0.221-0.465-3.117-0.336-3.182c0,0,1.843-0.226,2.085-0.222c0.182,0.011,0.206-0.574,0.01-0.584
		c-0.3,0-1.705,0.193-1.755,0.056c-0.078-0.306-0.268-1.339,0.194-2.226c0.218-0.387-0.007-0.76-0.15-0.365
		c-0.163,0.404-1.318,2.195-2.064,2.488c-0.608,0.25-0.539,0.39-0.147,0.49c0.311,0.061,0.634,0.434,0.574,0.428
		c-0.062,1.486-0.207,3.32,0.255,4.097c0.293,0.493,1.099,1,1.465,0.68c0.426-0.34,0.74-0.914,0.914-1.051
		C41.419,29.274,41.149,28.997,40.872,29.256z M55.989,39.143c-0.179,0.273-0.771,0.076-0.941-0.203
		c0-0.322-0.307-3.715-0.171-3.871c-0.489-0.547-1.333-1.777-1.901-1.717c-0.827,0.084-2.063,1.266-2.329,1.652
		c-0.201,0.289,0.061,1.688,0.219,1.821c0.043,0.031,0.065,0.041,0.105,0.08c-0.554,0.568-0.965,1.199-0.958,1.992
		c0.027,0.754,0.279,1.506,1.047,1.846c0.679-0.502,1.554-1.11,2.396-1.268c0.413,0.496,1.049,0.826,1.429,1.127
		c0.263-0.318,1.104-1.002,1.337-1.215C56.443,39.163,56.222,38.846,55.989,39.143z M51.962,39.336
		c-0.331-0.293-1.552-1.127-0.469-2.027c0.572,0.385,0.9,0.334,1.621,0.264c-0.03,0.39-0.058,0.75-0.058,0.91
		c0,0.174,0.072,0.31,0.121,0.457C52.804,39.073,52.329,39.153,51.962,39.336z M53.144,37.196c-0.624,0.013-1.161-0.18-1.841-0.778
		c-0.129-0.109-0.251-0.882-0.104-1.136c0.3-0.475,0.3-0.623,0.561-0.619c0.202,0,1.458,0.759,1.392,1.164
		C53.2,36.116,53.177,36.663,53.144,37.196z M44.11,38.12c-0.549,0.582-0.854,0.312-1.257-0.071
		c-0.196-0.222-0.27-2.306-0.129-2.367c0,0,1.006-0.146,1.248-0.146c0.187,0,0.172-0.581-0.026-0.581
		c-0.301,0-1.199,0.01-1.251-0.132c-0.112-0.287,0.179-1.692,0.23-2.323c0.042-0.445-0.198-0.586-0.317-0.171
		c-0.13,0.406-1.094,2.189-1.664,2.603c-0.482,0.363,0.57,0.869,0.475,0.84c0.039,1.49-0.178,3.021,0.329,3.777
		c0.321,0.471,1.321,0.817,1.494,0.365c0.169-0.453,0.927-1.378,1.097-1.535C44.653,38.1,44.376,37.846,44.11,38.12z M59.716,54.909
		c-1.098,1.273,0.149,2.306,0.149,2.306c-0.456-0.068-1.107-0.22-1.524-0.461c-0.084,0.461,0.549,0.627,0.849,0.828
		c2.325,0.954,3.854-1.281,5.897-1.675v-0.088c-1.369-0.197-2.443-1.155-3.695-1.627c-1.733-0.656-3.569,0.681-3.569,0.894
		C57.823,55.553,58.315,55.791,59.716,54.909z M61.173,54.819c0.525,0.152,1.771,0.853,2.219,1.148l-2.221,1.121
		c0,0,0.617-0.668,0.615-1.146C61.784,55.291,61.173,54.819,61.173,54.819z M31.351,33.131c-0.723,0.487-3.116,1.491-3.479,3.961
		c-0.32,2.377,1.921,3.789,2.997,4.248c0.272-0.547,0.821-1.433,1.361-2.054c0.411-0.479-0.041-0.606-0.409-0.237
		c-0.496,0.543-1.976,0.028-2.369-0.687c0.715-0.539,2.579-2.1,3.391-2.764C32.308,35.096,31.479,33.846,31.351,33.131z
		 M29.183,37.989c-0.673-0.846-1.036-2.223,1.002-3.471c0.216,0.551,0.905,1.598,1.216,1.783
		C30.865,36.836,29.552,37.729,29.183,37.989z M39.341,39.418c-0.367,0.079-0.433,0.151-0.433-0.082c0-0.437-0.173-2.414-0.2-3.677
		c-0.045-1.264-0.662-1.637-1.018-1.813c-0.363,0.404-1.171,0.912-1.656,1.324c-0.364-0.269-0.545-0.875-0.949-1.515
		c-0.465,0.439-0.831,0.84-1.51,1.377c0.315,0.361,0.851,0.82,0.899,1.443c0.041,0.631,0.016,3.555,0.055,4.285
		c0.497,0,0.409,0.053,1.264,0.02c-0.084-0.496-0.013-4.291-0.013-4.834c0.321-0.307,0.365-0.354,0.733-0.627
		c0.264,0.23,0.882,0.367,0.882,0.775c0,0.408,0.124,2.209-0.021,2.875c-0.18,0.813-0.1,1.397,0.339,2.215
		c0.333-0.371,1.575-1.24,1.845-1.457C39.823,39.497,39.685,39.325,39.341,39.418z M43.552,28.821
		c-0.416-0.461-0.575-0.84-0.662-1.373c-0.087-0.545-0.546-0.498-0.546,0c0,0.498,0.117,2.203,0.208,2.603
		c0.082,0.416,0.498,0.279,0.537-0.037c0.047-0.293,0.242-0.377,0.515-0.4c0.585-0.049,1.528,0.303,2.575,0.216
		c1.244-0.089,2.219-2.017,1.682-3.517c-0.501-1.424-2.088-1.174-3.157-1.514c-0.982-0.267-1.389-0.886-0.317-1.59
		c1.26-0.814,2.824,0.491,2.973,0.766c0.232,0.414,0.424,0.408,0.424-0.133c0.033-1.178-0.074-0.512-0.192-1.621
		c-0.039-0.396-0.329-0.432-0.355-0.049c-0.026,0.387-0.498,0.268-0.853,0.268c-0.362-0.008-1.413-0.168-2.321,0.336
		c-0.578,0.336-1.9,1.373-1.16,2.613c0.433,0.725,2.971,1.315,3.602,1.731c0.635,0.414,0.777,1.48,0.17,1.968
		C45.921,29.688,43.868,29.184,43.552,28.821z M48.3,38.225l-0.023-3.053l-0.975-1.433l-0.371,0.052l-1.529,1.428
		c-0.405,0.354-0.048,0.524,0.423,0.133l1.012,0.523l0.024,3.235c0.085,0.4,0.441,0.492,0.933,1l0.637-0.651l0.668-0.736
		C48.348,38.582,48.697,38.59,48.3,38.225z M52.446,29.211c0.408-0.541-0.007-0.867-0.293-0.242
		c-0.218,0.479-1.394-0.045-1.821-0.455c-0.572-0.533-0.929-1.932-0.473-2.422c0.461-0.498,1.122-0.269,1.975-0.295
		c0.561-0.027,0.681-0.545,0.776-0.808c-0.27-0.129-0.675-0.358-1.209-0.68c-0.549,0.35-1.396,1.07-1.761,1.373
		c-0.457,0.385-1.393,1.719-0.876,3.148c0.516,1.467,1.731,1.928,2.637,2C51.671,30.329,52.171,29.567,52.446,29.211z
		 M46.505,31.252c-0.229,0.45-0.596,0.86-1.266,1.166c0.408,0.356,0.94,0.813,1.289,1.043c0.403-0.449,0.774-0.863,1.237-1.302
		C47.306,32.069,46.774,31.838,46.505,31.252z"/>
</g>
</svg>
