<?xml version="1.0" encoding="utf-8"?>
<!-- Generator: Adobe Illustrator 16.0.0, SVG Export Plug-In . SVG Version: 6.00 Build 0)  -->
<!DOCTYPE svg PUBLIC "-//W3C//DTD SVG 1.1//EN" "http://www.w3.org/Graphics/SVG/1.1/DTD/svg11.dtd">
<svg version="1.1" id="Layer_1" xmlns="http://www.w3.org/2000/svg" xmlns:xlink="http://www.w3.org/1999/xlink" x="0px" y="0px"
	 width="109.497px" height="108px" viewBox="0 0 109.497 108" enable-background="new 0 0 109.497 108" xml:space="preserve">
<g id="Layer_1_1_">
</g>
<circle fill="none" stroke="#2D2D2D" stroke-width="3" stroke-miterlimit="10" cx="54.32" cy="54.265" r="50.274"/>
<g>
	<g id="XMLID_1_">
	</g>
</g>
<g>
	<g id="XMLID_3_">
		<g>
			<path fill="none" stroke="#2D2D2D" stroke-width="3" stroke-linejoin="round" stroke-miterlimit="10" d="M87.997,16.893
				L87.93,91.635c-4.199,0-7.846-1.154-11.077-3.191l0.104-0.151V19.8C80.197,17.95,83.844,16.893,87.997,16.893z"/>
			<path fill="none" stroke="#2D2D2D" stroke-width="3" stroke-linejoin="round" stroke-miterlimit="10" d="M76.954,19.799v68.49
				l-0.103,0.152c-4.071-2.539-7.499-6.459-10.56-11.184l0.194-0.132V29.88C69.523,25.61,72.94,22.088,76.954,19.799z"/>
			<path fill="none" stroke="#2D2D2D" stroke-width="3" stroke-linejoin="round" stroke-miterlimit="10" d="M66.488,29.88v47.249
				l-0.196,0.132c-4.474-6.89-8.178-15.485-11.951-24.004C58.045,44.827,61.817,36.461,66.488,29.88z"/>
			<path fill="none" stroke="#2D2D2D" stroke-width="3" stroke-linejoin="round" stroke-miterlimit="10" d="M54.341,53.257
				c-3.715,8.453-7.338,16.972-11.708,23.817l-0.069-0.033v-46.38C47.061,37.089,50.741,45.135,54.341,53.257z"/>
			<path fill="none" stroke="#2D2D2D" stroke-width="3" stroke-linejoin="round" stroke-miterlimit="10" d="M42.564,77.041
				l0.069,0.033c-3.037,4.755-6.43,8.705-10.444,11.281l-0.092-0.121v-67.94c4.014,2.399,7.43,6.021,10.467,10.367V77.041z"/>
			<path fill="none" stroke="#2D2D2D" stroke-width="3" stroke-linejoin="round" stroke-miterlimit="10" d="M32.097,88.234
				l0.092,0.121c-3.243,2.09-6.9,3.276-11.1,3.276L20.434,17.1c4.417,0,8.259,1.167,11.663,3.192V88.234z"/>
		</g>
	</g>
</g>
</svg>
